<svg width="25" height="26" viewBox="0 0 25 26" fill="none" xmlns="http://www.w3.org/2000/svg">
<path d="M25 17.7762V1.40201C25 0.753862 24.4029 0.232422 23.6607 0.232422H5.35714C2.39955 0.232422 0 2.32793 0 4.91077V20.5052C0 23.0881 2.39955 25.1836 5.35714 25.1836H23.6607C24.4029 25.1836 25 24.6622 25 24.014V23.2343C25 22.8688 24.8047 22.5374 24.5033 22.323C24.269 21.5725 24.269 19.4331 24.5033 18.6826C24.8047 18.4731 25 18.1417 25 17.7762ZM7.14286 6.76261C7.14286 6.60179 7.29353 6.47021 7.47768 6.47021H19.308C19.4922 6.47021 19.6429 6.60179 19.6429 6.76261V7.73727C19.6429 7.89808 19.4922 8.02966 19.308 8.02966H7.47768C7.29353 8.02966 7.14286 7.89808 7.14286 7.73727V6.76261ZM7.14286 9.88151C7.14286 9.72069 7.29353 9.58911 7.47768 9.58911H19.308C19.4922 9.58911 19.6429 9.72069 19.6429 9.88151V10.8562C19.6429 11.017 19.4922 11.1486 19.308 11.1486H7.47768C7.29353 11.1486 7.14286 11.017 7.14286 10.8562V9.88151ZM21.2835 22.0647H5.35714C4.36942 22.0647 3.57143 21.3678 3.57143 20.5052C3.57143 19.6476 4.375 18.9458 5.35714 18.9458H21.2835C21.1775 19.7791 21.1775 21.2314 21.2835 22.0647Z" fill="#F16136"/>
</svg>
