<svg width="25" height="21" viewBox="0 0 25 21" fill="none" xmlns="http://www.w3.org/2000/svg">
<path d="M24.654 10.9806L16.3203 19.7121C15.5762 20.4917 14.2864 19.946 14.2864 18.8286V13.8392H7.54006C6.8803 13.8392 6.34952 13.283 6.34952 12.5918V7.6024C6.34952 6.91116 6.8803 6.35505 7.54006 6.35505H14.2864V1.36564C14.2864 0.253423 15.5712 -0.297491 16.3203 0.482104L24.654 9.21356C25.1153 9.70211 25.1153 10.4921 24.654 10.9806ZM9.52428 19.4522V17.3733C9.52428 17.0303 9.25641 16.7496 8.92901 16.7496H4.76214C3.88412 16.7496 3.17476 16.0064 3.17476 15.0865V5.1077C3.17476 4.18778 3.88412 3.44456 4.76214 3.44456H8.92901C9.25641 3.44456 9.52428 3.16391 9.52428 2.82089V0.741969C9.52428 0.398947 9.25641 0.118293 8.92901 0.118293H4.76214C2.13304 0.118293 0 2.35313 0 5.1077V15.0865C0 17.8411 2.13304 20.0759 4.76214 20.0759H8.92901C9.25641 20.0759 9.52428 19.7953 9.52428 19.4522Z" fill="#F16136"/>
</svg>
