<svg width="25" height="21" viewBox="0 0 25 21" fill="none" xmlns="http://www.w3.org/2000/svg">
<path d="M20.0043 7.5355L19.684 8.09489C19.5668 8.30221 19.3168 8.38827 19.0941 8.30612C18.6332 8.134 18.2113 7.88756 17.8402 7.57853C17.6605 7.42988 17.6136 7.16779 17.7308 6.96438L18.0511 6.40499C17.7816 6.09204 17.5707 5.72825 17.4301 5.33316H16.7855C16.5511 5.33316 16.348 5.16495 16.309 4.93024C16.2308 4.46082 16.2269 3.96794 16.309 3.47896C16.348 3.24426 16.5511 3.07214 16.7855 3.07214H17.4301C17.5707 2.67704 17.7816 2.31325 18.0511 2.0003L17.7308 1.44092C17.6136 1.2375 17.6566 0.975412 17.8402 0.826764C18.2113 0.517732 18.6371 0.271288 19.0941 0.0991694C19.3168 0.0170216 19.5668 0.103081 19.684 0.310406L20.0043 0.869794C20.4144 0.795469 20.8324 0.795469 21.2426 0.869794L21.5629 0.310406C21.6801 0.103081 21.9301 0.0170216 22.1527 0.0991694C22.6136 0.271288 23.0355 0.517732 23.4066 0.826764C23.5863 0.975412 23.6332 1.2375 23.516 1.44092L23.1957 2.0003C23.4652 2.31325 23.6761 2.67704 23.8168 3.07214H24.4613C24.6957 3.07214 24.8988 3.24034 24.9379 3.47505C25.016 3.94447 25.0199 4.43735 24.9379 4.92633C24.8988 5.16104 24.6957 5.33316 24.4613 5.33316H23.8168C23.6761 5.72825 23.4652 6.09204 23.1957 6.40499L23.516 6.96438C23.6332 7.16779 23.5902 7.42988 23.4066 7.57853C23.0355 7.88756 22.6097 8.134 22.1527 8.30612C21.9301 8.38827 21.6801 8.30221 21.5629 8.09489L21.2426 7.5355C20.8363 7.60982 20.4144 7.60982 20.0043 7.5355ZM19.5941 5.23536C21.098 6.39325 22.8129 4.67597 21.6566 3.16993C20.1527 2.00813 18.4379 3.72932 19.5941 5.23536ZM15.0902 11.2556L16.4066 11.9128C16.8011 12.1397 16.973 12.6208 16.8168 13.0511C16.4691 13.9978 15.7855 14.8662 15.1527 15.6251C14.8636 15.9732 14.3636 16.0593 13.9691 15.8324L12.8324 15.1752C12.2074 15.7112 11.4808 16.1375 10.6879 16.4153V17.7296C10.6879 18.1834 10.3636 18.5746 9.91833 18.6528C8.9574 18.8171 7.94959 18.8249 6.95349 18.6528C6.50427 18.5746 6.17224 18.1873 6.17224 17.7296V16.4153C5.37927 16.1336 4.65271 15.7112 4.02771 15.1752L2.89099 15.8285C2.50037 16.0554 1.99646 15.9693 1.7074 15.6212C1.07459 14.8623 0.406617 13.9939 0.0589605 13.0511C-0.0972895 12.6247 0.0745855 12.1436 0.469117 11.9128L1.7699 11.2556C1.61755 10.4381 1.61755 9.59702 1.7699 8.77554L0.469117 8.11444C0.0745855 7.88756 -0.101196 7.40641 0.0589605 6.98002C0.406617 6.03337 1.07459 5.16495 1.7074 4.40606C1.99646 4.05791 2.49646 3.97185 2.89099 4.19873L4.02771 4.85592C4.65271 4.32 5.37927 3.89361 6.17224 3.61588V2.2976C6.17224 1.84774 6.49255 1.45656 6.93787 1.37833C7.8988 1.21403 8.91052 1.20621 9.90662 1.37442C10.3558 1.45265 10.6879 1.83992 10.6879 2.2976V3.61196C11.4808 3.89361 12.2074 4.31609 12.8324 4.852L13.9691 4.19482C14.3597 3.96794 14.8636 4.054 15.1527 4.40215C15.7855 5.16104 16.4496 6.02946 16.7972 6.97611C16.9535 7.4025 16.8011 7.88365 16.4066 8.11444L15.0902 8.77163C15.2426 9.5931 15.2426 10.4341 15.0902 11.2556ZM10.4965 12.081C12.809 9.06892 9.37537 5.63045 6.36755 7.94624C4.05505 10.9583 7.48865 14.3968 10.4965 12.081ZM20.0043 19.2279L19.684 19.7873C19.5668 19.9946 19.3168 20.0806 19.0941 19.9985C18.6332 19.8264 18.2113 19.5799 17.8402 19.2709C17.6605 19.1222 17.6136 18.8602 17.7308 18.6567L18.0511 18.0974C17.7816 17.7844 17.5707 17.4206 17.4301 17.0255H16.7855C16.5511 17.0255 16.348 16.8573 16.309 16.6226C16.2308 16.1532 16.2269 15.6603 16.309 15.1713C16.348 14.9366 16.5511 14.7645 16.7855 14.7645H17.4301C17.5707 14.3694 17.7816 14.0056 18.0511 13.6927L17.7308 13.1333C17.6136 12.9299 17.6566 12.6678 17.8402 12.5191C18.2113 12.2101 18.6371 11.9637 19.0941 11.7915C19.3168 11.7094 19.5668 11.7954 19.684 12.0028L20.0043 12.5622C20.4144 12.4878 20.8324 12.4878 21.2426 12.5622L21.5629 12.0028C21.6801 11.7954 21.9301 11.7094 22.1527 11.7915C22.6136 11.9637 23.0355 12.2101 23.4066 12.5191C23.5863 12.6678 23.6332 12.9299 23.516 13.1333L23.1957 13.6927C23.4652 14.0056 23.6761 14.3694 23.8168 14.7645H24.4613C24.6957 14.7645 24.8988 14.9327 24.9379 15.1674C25.016 15.6368 25.0199 16.1297 24.9379 16.6187C24.8988 16.8534 24.6957 17.0255 24.4613 17.0255H23.8168C23.6761 17.4206 23.4652 17.7844 23.1957 18.0974L23.516 18.6567C23.6332 18.8602 23.5902 19.1222 23.4066 19.2709C23.0355 19.5799 22.6097 19.8264 22.1527 19.9985C21.9301 20.0806 21.6801 19.9946 21.5629 19.7873L21.2426 19.2279C20.8363 19.3022 20.4144 19.3022 20.0043 19.2279ZM19.5941 16.9238C21.098 18.0817 22.8129 16.3644 21.6566 14.8584C20.1527 13.7005 18.4379 15.4178 19.5941 16.9238Z" fill="#F16136"/>
</svg>
