<svg width="25" height="26" viewBox="0 0 25 26" fill="none" xmlns="http://www.w3.org/2000/svg">
<path d="M24.957 18.8565L23.6533 11.0592C23.5264 10.3087 22.877 9.75805 22.1104 9.75805H10.1572V6.63915H14.8447C15.2744 6.63915 15.626 6.28827 15.626 5.85943V1.17621C15.626 0.74736 15.2744 0.396484 14.8447 0.396484H2.34473C1.91504 0.396484 1.56348 0.74736 1.56348 1.17621V5.85455C1.56348 6.2834 1.91504 6.63428 2.34473 6.63428H7.03223V9.75317H2.88672C2.125 9.75317 1.4707 10.3039 1.34375 11.0543L0.0400391 18.8516C0.0107422 19.0221 -0.00390625 19.1927 -0.00390625 19.3633V23.7882C-0.00390625 24.6508 0.694336 25.3477 1.55859 25.3477H23.4336C24.2979 25.3477 24.9961 24.6508 24.9961 23.7882V19.3681C25.001 19.1976 24.9863 19.027 24.957 18.8565ZM13.6729 12.4822C13.6729 12.0534 14.0244 11.7025 14.4541 11.7025H15.2354C15.665 11.7025 16.0166 12.0534 16.0166 12.4822V13.2619C16.0166 13.6908 15.665 14.0417 15.2354 14.0417H14.4541C14.0244 14.0417 13.6729 13.6908 13.6729 13.2619V12.4822ZM12.1104 15.6011H12.8916C13.3213 15.6011 13.6729 15.952 13.6729 16.3808V17.1606C13.6729 17.5894 13.3213 17.9403 12.8916 17.9403H12.1104C11.6807 17.9403 11.3291 17.5894 11.3291 17.1606V16.3808C11.3291 15.952 11.6807 15.6011 12.1104 15.6011ZM10.5479 11.7025C10.9775 11.7025 11.3291 12.0534 11.3291 12.4822V13.2619C11.3291 13.6908 10.9775 14.0417 10.5479 14.0417H9.7666C9.33691 14.0417 8.98535 13.6908 8.98535 13.2619V12.4822C8.98535 12.0534 9.33691 11.7025 9.7666 11.7025H10.5479ZM3.90723 4.2951V2.73566H13.2822V4.2951H3.90723ZM5.86035 14.0417H5.0791C4.64941 14.0417 4.29785 13.6908 4.29785 13.2619V12.4822C4.29785 12.0534 4.64941 11.7025 5.0791 11.7025H5.86035C6.29004 11.7025 6.6416 12.0534 6.6416 12.4822V13.2619C6.6416 13.6908 6.29004 14.0417 5.86035 14.0417ZM6.6416 17.1606V16.3808C6.6416 15.952 6.99316 15.6011 7.42285 15.6011H8.2041C8.63379 15.6011 8.98535 15.952 8.98535 16.3808V17.1606C8.98535 17.5894 8.63379 17.9403 8.2041 17.9403H7.42285C6.99316 17.9403 6.6416 17.5894 6.6416 17.1606ZM17.1885 22.6186C17.1885 22.833 17.0127 23.0085 16.7979 23.0085H8.2041C7.98926 23.0085 7.81348 22.833 7.81348 22.6186V21.8389C7.81348 21.6245 7.98926 21.449 8.2041 21.449H16.7979C17.0127 21.449 17.1885 21.6245 17.1885 21.8389V22.6186ZM18.3604 17.1606C18.3604 17.5894 18.0088 17.9403 17.5791 17.9403H16.7979C16.3682 17.9403 16.0166 17.5894 16.0166 17.1606V16.3808C16.0166 15.952 16.3682 15.6011 16.7979 15.6011H17.5791C18.0088 15.6011 18.3604 15.952 18.3604 16.3808V17.1606ZM20.7041 13.2619C20.7041 13.6908 20.3525 14.0417 19.9229 14.0417H19.1416C18.7119 14.0417 18.3604 13.6908 18.3604 13.2619V12.4822C18.3604 12.0534 18.7119 11.7025 19.1416 11.7025H19.9229C20.3525 11.7025 20.7041 12.0534 20.7041 12.4822V13.2619Z" fill="#F16136"/>
</svg>
