<svg width="25" height="16" viewBox="0 0 25 16" fill="none" xmlns="http://www.w3.org/2000/svg">
<path d="M13.75 9.27393H13.125V5.84314C13.125 5.67082 12.9852 5.53125 12.8125 5.53125H12.282C12.0969 5.53125 11.916 5.58583 11.7621 5.68836L11.1633 6.0868C11.1291 6.1095 11.0998 6.13869 11.0769 6.1727C11.0541 6.20672 11.0382 6.24489 11.0301 6.28505C11.0221 6.3252 11.022 6.36654 11.03 6.40671C11.038 6.44688 11.0538 6.48509 11.0766 6.51916L11.4234 7.03807C11.4462 7.07215 11.4754 7.10143 11.5095 7.12423C11.5436 7.14703 11.5818 7.1629 11.6221 7.17094C11.6623 7.17898 11.7037 7.17902 11.744 7.17107C11.7842 7.16313 11.8225 7.14734 11.8566 7.12462L11.875 7.11253V9.27393H11.25C11.0773 9.27393 10.9375 9.4135 10.9375 9.58582V10.2096C10.9375 10.3819 11.0773 10.5215 11.25 10.5215H13.75C13.9227 10.5215 14.0625 10.3819 14.0625 10.2096V9.58582C14.0625 9.4135 13.9227 9.27393 13.75 9.27393ZM23.75 0.541016H1.25C0.559766 0.541016 0 1.09969 0 1.78857V14.2642C0 14.953 0.559766 15.5117 1.25 15.5117H23.75C24.4402 15.5117 25 14.953 25 14.2642V1.78857C25 1.09969 24.4402 0.541016 23.75 0.541016ZM1.875 13.6404V11.1453C3.25586 11.1453 4.375 12.2622 4.375 13.6404H1.875ZM1.875 4.90747V2.41235H4.375C4.375 3.79052 3.25586 4.90747 1.875 4.90747ZM12.5 12.3928C10.4289 12.3928 8.75 10.4377 8.75 8.02637C8.75 5.61468 10.4289 3.65991 12.5 3.65991C14.5711 3.65991 16.25 5.61468 16.25 8.02637C16.25 10.4384 14.5703 12.3928 12.5 12.3928ZM23.125 13.6404H20.625C20.625 12.2622 21.7441 11.1453 23.125 11.1453V13.6404ZM23.125 4.90747C21.7441 4.90747 20.625 3.79052 20.625 2.41235H23.125V4.90747Z" fill="#F16136"/>
</svg>
