<svg width="22" height="26" viewBox="0 0 22 26" fill="none" xmlns="http://www.w3.org/2000/svg">
<path d="M21.2891 24.0948H20.3125V1.87271C20.3125 1.22676 19.7878 0.703125 19.1406 0.703125H2.73438C2.08716 0.703125 1.5625 1.22676 1.5625 1.87271V24.0948H0.585938C0.262354 24.0948 0 24.3567 0 24.6796V25.6543H21.875V24.6796C21.875 24.3567 21.6126 24.0948 21.2891 24.0948ZM6.25 4.40681C6.25 4.08386 6.51235 3.82202 6.83594 3.82202H8.78906C9.11265 3.82202 9.375 4.08386 9.375 4.40681V6.35612C9.375 6.67908 9.11265 6.94092 8.78906 6.94092H6.83594C6.51235 6.94092 6.25 6.67908 6.25 6.35612V4.40681ZM6.25 9.08516C6.25 8.76221 6.51235 8.50037 6.83594 8.50037H8.78906C9.11265 8.50037 9.375 8.76221 9.375 9.08516V11.0345C9.375 11.3574 9.11265 11.6193 8.78906 11.6193H6.83594C6.51235 11.6193 6.25 11.3574 6.25 11.0345V9.08516ZM8.78906 16.2976H6.83594C6.51235 16.2976 6.25 16.0358 6.25 15.7128V13.7635C6.25 13.4406 6.51235 13.1787 6.83594 13.1787H8.78906C9.11265 13.1787 9.375 13.4406 9.375 13.7635V15.7128C9.375 16.0358 9.11265 16.2976 8.78906 16.2976ZM12.5 24.0948H9.375V20.0013C9.375 19.6783 9.63735 19.4165 9.96094 19.4165H11.9141C12.2376 19.4165 12.5 19.6783 12.5 20.0013V24.0948ZM15.625 15.7128C15.625 16.0358 15.3626 16.2976 15.0391 16.2976H13.0859C12.7624 16.2976 12.5 16.0358 12.5 15.7128V13.7635C12.5 13.4406 12.7624 13.1787 13.0859 13.1787H15.0391C15.3626 13.1787 15.625 13.4406 15.625 13.7635V15.7128ZM15.625 11.0345C15.625 11.3574 15.3626 11.6193 15.0391 11.6193H13.0859C12.7624 11.6193 12.5 11.3574 12.5 11.0345V9.08516C12.5 8.76221 12.7624 8.50037 13.0859 8.50037H15.0391C15.3626 8.50037 15.625 8.76221 15.625 9.08516V11.0345ZM15.625 6.35612C15.625 6.67908 15.3626 6.94092 15.0391 6.94092H13.0859C12.7624 6.94092 12.5 6.67908 12.5 6.35612V4.40681C12.5 4.08386 12.7624 3.82202 13.0859 3.82202H15.0391C15.3626 3.82202 15.625 4.08386 15.625 4.40681V6.35612Z" fill="#F16136"/>
</svg>
