<?xml version="1.0" encoding="UTF-8"?>
<svg id="Capa_6" data-name="Capa 6" xmlns="http://www.w3.org/2000/svg" viewBox="0 0 1080 1080">
  <defs>
    <style>
      .cls-1 {
        fill: #89a9cf;
      }

      .cls-1, .cls-2, .cls-3, .cls-4, .cls-5, .cls-6, .cls-7, .cls-8, .cls-9, .cls-10 {
        fill-rule: evenodd;
      }

      .cls-2 {
        fill: #8fadd3;
      }

      .cls-3 {
        fill: #426596;
      }

      .cls-4 {
        fill: #dce3ed;
      }

      .cls-5 {
        fill: #0085c5;
      }

      .cls-6 {
        fill: #0086c6;
      }

      .cls-7 {
        fill: #e4ebf2;
      }

      .cls-8 {
        fill: #426696;
      }

      .cls-9 {
        fill: #0088c8;
      }

      .cls-10 {
        fill: #f7f8fa;
      }
    </style>
  </defs>
  <path class="cls-5" d="m303.84,537.49c5.41,3.49,11.13,5.7,17.21,6.88,16.44,3.19,32.46,1.95,48.03-4.54,11.59-4.83,23.36-9.21,35.17-13.49,1.65-.6,2.32-.45,2.84,1.31,2.63,8.79,3.99,17.67,1.86,26.76-2.88,12.3-10.47,21.05-21.56,26.48-20.37,9.96-41.12,10.1-61.6.42-11.84-5.6-19.75-14.82-22.21-28.08-.96-5.16-.91-10.32.26-15.73Z"/>
  <path class="cls-5" d="m356.62,443c1.78,10.56,7.68,18.61,13.3,26.78,3.91,5.68,8.18,11.08,12.55,16.41.73.89,1.15,1.47-.41,1.96-11.38,3.5-22.4,8.16-34.19,10.32-8.33,1.53-16.67,2.03-25.46.06,13.15-17.47,25.71-35.07,34.21-55.53Z"/>
  <path class="cls-5" d="m335.75,539.17c-10.5.04-19.04-1.82-26.27-7.77-1.21-1-3.23-2-3.05-3.46.3-2.3,1.5-4.52,2.49-6.69.45-.99,1.27-.15,1.87.08,18.5,6.93,36.99,6.45,55.38-.29,10.06-3.68,19.99-7.7,29.95-11.66,1.78-.71,2.69-.45,3.48,1.33,1.3,2.92,2.82,5.74,4.25,8.6.4.79.63,1.35-.63,1.68-17.31,4.6-33.93,11.46-51.28,15.92-5.74,1.48-11.61,2.29-16.2,2.26Z"/>
  <path class="cls-5" d="m395.39,503.54c-16.84,4.33-32.29,11.72-49.09,14.65-9.91,1.73-19.75,1.96-29.27-2.07-4.77-2.02-4.75-2.04-2.17-6.37,3.14-5.25,3.12-5.16,9.1-4.18,14.76,2.44,29.17,1.23,43.15-4.32,6.39-2.54,12.81-4.99,19.18-7.57,1.28-.52,1.98-.36,2.75.81,1.94,2.93,4.03,5.76,6.34,9.05Z"/>
  <path class="cls-5" d="m794.44,635.14c-1.33,1.43-2.43,2.46-3.88,2.98-5.71,2.09-11.13-1.38-11.39-7.51-.21-4.95-.03-9.92-.08-14.89-.01-1.18.47-1.44,1.56-1.49,4.72-.25,4.72-.28,4.72,4.32,0,3.36-.03,6.72,0,10.09.03,3.12,1.15,4.55,3.57,4.75,2.8.23,4.9-1.22,5.14-4.17.32-3.98.15-7.99.26-11.99.03-.97-.6-2.53.55-2.8,1.66-.38,3.49-.15,5.23.03.51.05.41.96.41,1.51,0,6.8-.01,13.61.02,20.41,0,1.19-.31,1.82-1.63,1.71-.87-.07-1.78-.12-2.64,0-2.18.32-1.72-1.27-1.86-2.97Z"/>
  <path class="cls-5" d="m710.46,635.43c-1.62,1.58-3.25,2.65-5.28,3.08-5.03,1.06-9.56-2.08-9.83-7.2-.28-5.19-.1-10.4-.15-15.6-.01-.99.33-1.37,1.37-1.47,4.85-.47,4.9-.46,4.9,4.43,0,3.52,0,7.04.02,10.57.01,2.15.8,3.75,3.14,4.13,2.41.38,4.32-.7,5.22-2.86.41-.99.45-2.02.45-3.06,0-3.76.06-7.53-.03-11.29-.03-1.42.32-1.93,1.85-1.94,4.42-.02,4.41-.09,4.41,4.39,0,5.76-.08,11.53.05,17.29.04,1.86-.55,2.48-2.3,2.2-.31-.05-.64-.04-.96,0-1.87.25-3.21-.1-2.86-2.66Z"/>
  <path class="cls-5" d="m867.92,622.81c-1.24.15-2.41.06-3.32-1.9-1.36-2.92-6.08-2.74-7.5.18-1.64,3.35-1.57,6.87.25,10.15,1.56,2.8,5.88,3.09,7.1.31,1.06-2.42,2.64-2.02,4.38-2.04,2.98-.02,3.21.35,1.97,3.04-1.87,4.1-6.45,6.57-11.3,6.09-4.6-.45-7.9-3.33-9.09-7.99-.78-3.08-.8-6.19-.06-9.28,1.06-4.41,4.12-7.01,8.83-7.61,4.99-.63,9.42,1.31,11.37,4.98,1.81,3.4,1.44,4.06-2.63,4.06Z"/>
  <path class="cls-5" d="m829.69,628.21c0-2.48-.05-4.97.02-7.45.04-1.32-.15-2.25-1.78-1.97-2.01.34-1.72-1.07-1.71-2.25.02-1.15-.38-2.61,1.67-2.28,1.28.21,1.76-.34,2.01-1.63.91-4.6,4.03-7.07,8.61-7.01.46,0,1.08-.13,1.15.52.11,1.03-.01,2.08.12,3.11.21,1.67-1.04,1.4-1.97,1.67-1.22.36-1.91,1.34-1.83,2.53.1,1.4,1.39.82,2.08.75,1.98-.19,1.93.97,1.98,2.37.06,1.59-.33,2.49-2.1,2.2-1.74-.28-2.13.54-2.1,2.16.09,4.96-.05,9.93.08,14.89.04,1.77-.4,2.37-2.24,2.29-4.72-.2-3.91.52-3.98-3.92-.03-2,0-4,0-6Z"/>
  <path class="cls-5" d="m809,616.59c1.67-1.74,3.48-2.73,5.75-2.9,1.34-.1,2.23.09,1.97,1.73-.06.39-.06.81,0,1.2.34,2.31-.1,3.53-2.97,3.5-2.81-.03-4.31,2-4.38,4.99-.08,3.59-.14,7.2.01,10.79.08,1.86-.56,2.28-2.31,2.24-4-.09-4,0-4-4.09,0-5.59.11-11.19-.05-16.78-.07-2.32.41-3.52,2.95-3.01.23.05.48.04.72,0,1.7-.27,2.66.24,2.32,2.33Z"/>
  <path class="cls-6" d="m847.68,626.15c0,3.28-.06,6.57.02,9.86.04,1.49-.3,2.17-1.98,2.11-5.29-.17-4.33.63-4.38-4.24-.06-5.77.04-11.54-.05-17.31-.03-1.7.32-2.41,2.23-2.37,4.15.1,4.16-.01,4.16,4.25v7.7Z"/>
  <path class="cls-6" d="m824.68,626.43c0,3.2-.07,6.4.03,9.6.05,1.52-.34,2.15-1.99,2.09-5.3-.17-4.23.64-4.29-4.28-.07-5.76.04-11.52-.05-17.28-.03-1.7.31-2.4,2.21-2.35,4.09.11,4.09,0,4.09,4.06v8.16Z"/>
  <path class="cls-9" d="m844.23,611.34c-2.37.6-3.14-.37-2.96-2.85.25-3.47-.14-2.68,3.53-2.99,2.64-.22,2.82.9,2.99,3.11.22,3.05-1.37,3.03-3.56,2.73Z"/>
  <path class="cls-6" d="m821.48,611.32c-2.54.72-3.07-.38-3.19-2.88-.12-2.9,1.23-2.82,3.37-2.94,2.6-.15,3.05.79,3.12,3.18.08,2.71-1.06,3.14-3.3,2.64Z"/>
  <path class="cls-4" d="m601.44,610.4c.5-.2,1.14.04,1.54-.48,1.39.17,2.81.19,4.08.88-1.95.91-3.76-.1-5.62-.4Z"/>
  <path class="cls-10" d="m607.27,610.79c1.14.2,2.29.39,3.44.59.29.24.28.48,0,.71-1.08-.62-2.62-.02-3.44-1.3Z"/>
  <path class="cls-7" d="m610.7,612.09v-.71c.95.15,1.89.3,2.84.45.13.42.04.64-.44.45-.8-.06-1.6-.12-2.4-.18Z"/>
  <path class="cls-2" d="m613.1,612.27c.15-.15.3-.3.44-.45.68-.1,1.03.2,1.06.88-.56.05-1.09.02-1.51-.42Z"/>
  <path class="cls-1" d="m618.8,613.2c.85.09,1.81-.39,2.48.53-.83-.13-1.79.28-2.48-.53Z"/>
  <path class="cls-3" d="m285.59,510.6c-.62-.58-1.06-.96-.28-1.89,6.8-8.09,8.88-17.56,7.91-27.86-1.42-15.08-8.18-26.81-21.85-33.95-8.36-4.37-17.46-5.53-26.78-5.51-20.84.04-41.68.16-62.52-.07-7.09-.08-10.55,4.67-10.5,10.52.17,21.24.07,42.48.07,63.72s0,42.97,0,64.45c0,6.76,3.43,10.16,10.22,10.16,19,0,38-.02,56.99.01,6.26.01,12.49-.36,18.65-1.54,10.61-2.02,20.1-6.17,27.84-14.02,16.45-16.67,15.73-49.71.25-64.01Zm-29.24,74.66c-5.61,1.03-11.28,1.43-16.99,1.43-19.16,0-38.32,0-57.48,0-4.86,0-6.64-1.79-6.64-6.7,0-21.41,0-42.81,0-64.22s0-42.65,0-63.98c0-5.26,1.66-6.94,6.87-6.94,20.92,0,41.85,0,62.77,0,7.42,0,14.72.87,21.64,3.71,13.15,5.41,20.5,15.43,22.77,29.27,1.25,7.63.96,15.18-2.58,22.3-1.4,2.82-3.16,5.39-5.31,7.68-1.27,1.35-1.46,2.57.07,3.86,7.49,6.29,11.04,14.64,12.03,24.1,1.24,11.88-.45,23.19-7.93,33.04-7.36,9.7-17.6,14.31-29.22,16.43Z"/>
  <path class="cls-5" d="m692.58,616.59c0-.69.34-1.74-.3-2.02-1.56-.69-3.3-.23-4.96-.28-1.52-.04-.61,1.54-1.28,2.1-6.33-5.85-14.03-1.34-15.88,4.6-.95,3.07-1.05,6.12-.32,9.23,1.81,7.76,10.04,10.6,16.43,5.4,0,1.49.09,2.69-.02,3.87-.21,2.21-1.88,3.73-4.53,4.28-2.44.5-5.45-.28-5.86-2.11-.66-2.94-2.64-2.22-4.51-2.38-1.87-.17-2.24.65-1.83,2.24,1.17,4.51,4.34,6.76,8.69,7.54,6.47,1.15,14.75-1.82,14.42-11.57-.24-6.96-.04-13.93-.06-20.89Zm-6.87,13.96c-.96,1.74-2.45,2.76-4.46,2.77-1.91,0-3.42-.9-4.31-2.58-1.6-3.05-1.47-6.19-.05-9.24.83-1.79,2.55-2.4,4.41-2.36,1.98.03,3.55.89,4.41,2.78.68,1.49.77,3.1.92,4.64-.08,1.41-.24,2.77-.91,3.99Z"/>
  <path class="cls-5" d="m660.12,610.18c-1.47-4.18-1.48-3.95-5.85-4.26-2.8-.2-3.8.87-4.64,3.35-3.04,9-6.3,17.93-9.56,26.85-.58,1.6-.36,2.02,1.4,2.01,4.99-.02,4.99.06,6.59-4.55.05-.15.12-.3.14-.46.22-1.34.97-1.76,2.34-1.7,2.8.12,5.6.1,8.4,0,1.26-.04,1.81.4,2.19,1.57,1.68,5.18,1.71,5.18,7.22,5.09.4,0,.79-.04,1.53-.08-3.32-9.47-6.54-18.65-9.76-27.83Zm-3,15.72c-.16,0-.32,0-.48,0q-6.19.22-4.28-5.62c.71-2.17,1.42-4.34,2.31-7.04,1.31,4.12,2.43,7.67,3.57,11.21.34,1.05-.02,1.51-1.11,1.44Z"/>
  <path class="cls-5" d="m777.09,625.04c-.4-5.68-3.14-9.66-7.49-10.94-3.51-1.03-6.56-.22-9.65,2.95.86-2.81-.45-2.87-1.91-2.79-.56.03-1.13.07-1.68,0-1.78-.27-2.32.39-2.3,2.22.1,9.53.05,19.07.05,28.61,0,4.29,0,4.19,4.32,4.24,1.7.02,1.95-.63,1.92-2.08-.08-3.84-.03-7.68-.03-12.1,3.29,3.57,6.82,4.39,10.79,2.76,4.15-1.71,6.42-6.73,5.98-12.87Zm-5.26,5.54c-.94,1.94-2.58,2.78-4.67,2.75-2.02-.03-3.58-.98-4.32-2.87-1-2.52-1.13-5.18-.35-7.76.67-2.2,2.13-3.74,4.65-3.83,2.55-.1,3.96,1.38,4.88,3.53.51,1.19.61,2.47.7,3.78-.15,1.47-.22,3.01-.9,4.4Z"/>
  <path class="cls-5" d="m918.97,634.35c.04-8.17.01-16.35.01-24.51,0-4.36,0-4.26-4.3-4.3-1.71-.02-1.96.67-1.92,2.12.09,3.01.03,6.02.03,9.45-.54-.45-.76-.63-.97-.82-5.09-4.54-12.17-2.93-14.7,3.4-1.28,3.2-1.31,6.51-.79,9.92,1.14,7.46,9.4,12.49,16.49,6.26-.31,1.98.62,2.35,2.29,2.28,4.59-.17,3.85.49,3.87-3.78Zm-13.31-.86c-3.22-.05-5.39-3.17-5.27-7.55.12-4.53,2.14-7.04,5.57-6.91,2.03.08,3.49,1.04,4.32,2.9.63,1.42.72,2.94.73,4.46.05,4.42-2.01,7.15-5.35,7.1Z"/>
  <path class="cls-5" d="m893.92,622.15c-.2-5.16-2.68-7.7-7.8-8.35-2.31-.29-4.64-.2-6.91.43-3.14.87-5.11,2.87-5.66,6.13-.09.56-.5,1.44.48,1.53,1.51.14,3.04.13,4.55.04,1.01-.06.91-1.2,1.35-1.81,1.11-1.55,3.43-2.1,5.65-1.3,1.17.42,2,1.08,1.83,2.44-.3,2.35-2.4,1.94-3.88,2.44-.37.12-.8.06-1.19.14-2.03.41-4.13.58-6.02,1.53-2.8,1.41-4.05,4.07-3.61,7.69.35,2.91,1.93,4.62,5.02,5.32,3.46.77,6.67.24,9.79-2.12.83,3.17,3.26,1.44,4.97,1.82,1.14.26,1.5-.41,1.49-1.52-.05-4.8.1-9.61-.08-14.4Zm-11.08,11.95c-1.55.24-3.2.25-3.73-1.66-.52-1.88.15-3.35,2.14-3.93,2.06-.61,4.15-1.12,6.35-1.71.2,4.46-1.32,6.77-4.76,7.3Z"/>
  <path class="cls-5" d="m942.08,621.86c-.15-4.64-2.31-6.96-6.87-7.88-2.72-.55-5.42-.43-8.07.33-3.17.91-5.13,3.29-5.41,6.34-.03.38-.23.77.11,1.11.73.72,5.47.12,5.85-.83.96-2.32,2.86-2.61,4.96-2.37,1.47.17,3,.6,3.02,2.46.03,1.72-1.34,2.17-2.77,2.41-.71.12-1.41.25-2.12.38-2.12.39-4.29.59-6.25,1.56-2.87,1.42-4.07,4.11-3.59,7.92.33,2.65,2.02,4.41,4.99,5.08,3.45.77,6.67.25,9.73-2.07,1,1.97,1,1.92,4.83,1.82,1.22-.03,1.68-.34,1.67-1.63-.07-4.88.07-9.76-.09-14.64Zm-10.78,12.18c-1.66.34-3.3.34-4.03-1.58-.67-1.77.23-3.33,2.36-4.02,1.97-.64,4-1.08,6.13-1.63.23,4.36-1.14,6.55-4.46,7.22Z"/>
  <path class="cls-5" d="m739.56,621.13c-.17-3.98-2.37-6.18-6.32-7.06-2.8-.63-5.58-.55-8.32.19-2.93.79-4.89,2.62-5.5,5.71-.26,1.32-.16,2.17,1.57,2.04,1.97-.14,3.99.46,5.08-2.2.64-1.55,3.78-1.74,5.72-.84.96.45,1.64,1.12,1.5,2.21-.3,2.29-2.35,2.03-3.87,2.5-.38.12-.8.07-1.19.15-2.04.39-4.13.57-6.03,1.5-2.88,1.4-4.17,4.17-3.72,7.88.33,2.74,2.09,4.55,5.19,5.21,3.45.73,6.67.13,9.52-2.04,1.07,1.86,1.53,1.98,5.08,1.74.99-.07,1.44-.32,1.43-1.38-.05-5.2.09-10.41-.13-15.61Zm-11.39,13.04c-1.49.15-2.98-.12-3.39-1.91-.39-1.7.25-3.07,1.94-3.63,2.11-.7,4.29-1.2,6.54-1.8.85,4.29-1.57,7-5.09,7.34Z"/>
  <path class="cls-3" d="m815.12,496.61v-38.82c0-2.57.05-5.13-.02-7.7-.03-1.16.37-1.5,1.51-1.49,7.37.04,14.75.07,22.13-.02,1.79-.02,1.64.96,1.64,2.12-.02,9.06,0,18.12,0,27.18,0,18.36-.02,36.71.04,55.07,0,1.89-.41,2.7-2.45,2.78-6.64.27-13.28.68-19.92,1.14-1.58.11-2.01-.24-1.98-1.87.09-5.87-.46-11.68-2.34-17.3-3.14-9.43-9.5-14.15-19.1-14.18-10.13-.04-16.77,4.64-19.97,14.09-1.88,5.54-2.39,11.27-2.18,17.07.06,1.63-.3,2.09-1.92,1.95-7.5-.64-15.02-1.2-22.52-1.77-.95-.07-1.66-.11-1.67-1.41-.12-13.66,2.18-26.61,10.54-37.93,12.94-17.53,42.49-19.45,56.62-.81.38.5.81.96,1.62,1.9Z"/>
  <path class="cls-3" d="m815.65,570.35c-5.35,7.13-11.95,11.71-20.6,13.02-19.04,2.89-34.92-5.74-43.02-23.25-2.92-6.31-4.57-12.94-5.26-19.85-.15-1.5.16-1.9,1.75-1.76,7.42.68,14.84,1.25,22.27,1.76,1.63.11,2.31.61,2.58,2.33.65,3.98,2.12,7.7,4.37,11.07,8.2,12.28,24.26,12.57,32.9.57,2.32-3.23,3.88-6.82,4.53-10.74.25-1.51.78-2.09,2.42-2.14,6.88-.19,13.77-.51,20.64-.91,1.71-.1,2.17.33,2.16,2.04-.07,12.26-.07,24.51,0,36.77,0,1.65-.42,2.19-2.13,2.17-6.89-.09-13.78-.09-20.67,0-1.63.02-2.04-.51-1.99-2.04.1-3.01.03-6.03.03-9.05Z"/>
  <path class="cls-3" d="m620.84,517.93c9.3,1.74,18.25,3.43,27.21,5.05,1.29.23,1.82.85,2.2,2.07,2.34,7.56,4.77,15.08,7.36,23.23,1.47-4.54,2.76-8.51,4.04-12.48.86-2.67,1.68-5.34,2.54-8,.26-.8.36-1.6,1.73-1.34,7.46,1.45,14.94,2.76,22.61,4.15-2.7,7.48-5.35,14.84-8,22.2-3.2,8.88-6.43,17.74-9.56,26.65-.49,1.41-1.05,2.01-2.64,1.99-7.69-.09-15.39-.07-23.08-.02-1.29,0-1.96-.28-2.44-1.62-7.19-20.27-14.45-40.52-21.7-60.78-.08-.22-.11-.46-.28-1.11Z"/>
  <path class="cls-3" d="m857.93,533.57c3.05-3.41,6.95-5.18,11.06-6.45,8.13-2.52,16.58-3.48,24.96-4.82,3.32-.53,6.62-1.14,9.76-2.4,3.2-1.27,5-3.53,5.34-7.02.36-3.7-.69-6.81-4-8.59-7.38-3.94-15.08-4.14-22.64-.71-3.87,1.76-5.73,5.55-6.6,9.57-.48,2.2-1.41,2.69-3.51,2.64-6.09-.15-12.18-.05-18.27-.04q-2.96,0-2.64-2.87c1.9-17.13,9.79-26.15,26.67-29.76,10.94-2.34,22-2.31,32.89.35,14.37,3.51,22.44,13.12,23.96,27.98.54,5.31.55,5.33-4.52,6.93-19.88,6.27-40.2,10.62-60.82,13.58-3.88.56-7.76,1.08-11.63,1.62Z"/>
  <path class="cls-3" d="m459.07,505.73c-6.69,4.06-8.89,10.33-8.97,17.33-.2,18.19-.1,36.38-.11,54.57q0,3.77-3.8,3.77c-6.65,0-13.31-.05-19.96.04-1.56.02-2.05-.39-2.05-1.99.05-23.48.03-46.96.03-70.44,0-1.07-.12-2.01,1.5-2.1,10.88-.63,21.76-1.19,32.66-1.42.13,0,.27.09.71.25Z"/>
  <path class="cls-3" d="m480.36,505.37c1.67,0,2.67-.02,3.67,0,8.49.2,16.98.46,25.48.57,1.76.02,2.46.64,2.54,2.29.1,2.16.36,4.32.36,6.48.03,21.4,0,42.8.06,64.2,0,1.95-.44,2.58-2.48,2.55-7.05-.13-14.1-.13-21.16,0-1.97.04-2.34-.61-2.33-2.42.06-18.51.05-37.03.02-55.54,0-2.56-.12-5.14-.46-7.67-.52-3.92-1.53-7.68-5.71-10.45Z"/>
  <path class="cls-3" d="m449.17,497.49c.53-.79,1.05-1.57,1.59-2.35,4.95-7.16,11.75-11.41,20.33-12.8,8.03-1.31,15.97-1.18,23.62,1.99,7.24,3.01,12.08,8.36,15.19,15.74-.85.05-1.39.11-1.93.11-27.43.02-54.77,1.53-82.02,4.67-1.45.17-1.78-.25-1.77-1.62.06-5.77.07-11.54,0-17.31-.02-1.41.49-1.75,1.81-1.74,6.97.05,13.95.07,20.92-.01,1.56-.02,1.86.55,1.83,1.94-.08,3.74-.03,7.49-.03,11.24.15.06.3.11.45.16Z"/>
  <path class="cls-3" d="m606.13,507.83c-9.8-1.52-19.4-2.69-28.98-4.02-3.56-.49-6.91-2.4-10.68-2.4-2.49,0-4.94.1-7.41.49-3.43.55-6.85-.31-10.29-.41-6.8-.2-13.59-.66-20.39-.88-1.85-.06-1.97-.5-1.17-2.02,3.42-6.49,8.71-10.91,15.5-13.27,14.75-5.12,29.72-5.32,44.53-.45,10.75,3.54,17.36,11.99,18.89,22.95Z"/>
  <path class="cls-3" d="m737.41,509.07c0,7.53-.05,15.05.04,22.58.02,1.75-.42,2.11-2.16,1.84-7.28-1.11-14.57-2.08-21.87-3.01-1.34-.17-1.7-.68-1.7-1.97.04-14.18.05-28.35-.01-42.53,0-1.56.54-1.83,1.93-1.82,7.29.06,14.58.08,21.86-.01,1.69-.02,1.95.62,1.94,2.09-.06,7.61-.03,15.22-.03,22.83Z"/>
  <path class="cls-3" d="m711.75,557.89c0-7.2.06-14.41-.04-21.61-.02-1.75.45-2.14,2.15-1.9,7.29,1.01,14.59,1.94,21.89,2.77,1.4.16,1.68.72,1.68,1.97-.03,13.53-.04,27.06,0,40.58,0,1.41-.5,1.74-1.81,1.73-7.36-.05-14.73-.07-22.09.02-1.58.02-1.83-.55-1.82-1.94.06-7.2.03-14.41.03-21.61Z"/>
  <path class="cls-3" d="m705.21,484.19c-.6,1.68-1.1,3.1-1.61,4.51-4.24,11.81-8.51,23.6-12.68,35.43-.6,1.72-1.26,2.12-3.08,1.68-6.52-1.6-13.08-3.03-19.65-4.4-1.54-.32-1.71-.8-1.25-2.21,3.6-11.09,7.12-22.21,10.68-33.32.25-.79.32-1.7,1.6-1.69,8.56.04,17.11.02,25.99.02Z"/>
  <path class="cls-3" d="m647.42,516.15c-5.75-1.27-11.11-2.47-16.49-3.62-3.75-.8-7.52-1.55-11.29-2.27-1.08-.21-1.87-.46-2.3-1.69-2.74-7.85-5.58-15.66-8.38-23.5-.07-.21,0-.46,0-.87,9.05,0,18.1.01,27.15-.02,1.01,0,1.35.48,1.63,1.36,3.17,10.07,6.37,20.12,9.7,30.61Z"/>
  <path class="cls-3" d="m724.73,448.62c3.68,0,7.36.04,11.04-.02,1.22-.02,1.68.31,1.67,1.6-.06,6.88-.05,13.76,0,20.65,0,1.23-.36,1.69-1.64,1.69-7.52-.04-15.04-.04-22.56,0-1.14,0-1.52-.38-1.51-1.53.04-6.96.06-13.92-.01-20.88-.01-1.4.61-1.53,1.73-1.51,3.76.05,7.52.02,11.28.02Z"/>
  <path class="cls-3" d="m549.2,508.77c-.66,2.07-1.33,3.93-1.83,5.85-.23.9-.66,1.12-1.49,1.12-7.12-.02-14.23-.02-21.34.01-1.1,0-1.41-.49-1.26-1.48.04-.24.04-.48.07-.71q.72-6.77,7.44-6.29c5.1.37,10.2.73,15.3,1.12,1.02.08,2.04.25,3.11.38Z"/>
  <path class="cls-3" d="m607.4,520.32c0-1.04-.07-2.09-.03-3.13.04-.97-.32-1.45-1.32-1.6-7.85-1.09-15.7-2.22-23.55-3.32-.73-.1-1.46-.23-1.56.88-.43,4.75-3.82,6.51-7.8,7.64-5.34,1.51-10.87,1.94-16.3,2.92-7.4,1.33-14.88,2.34-21.72,5.77-7.66,3.84-12.44,9.9-14.18,18.29-.87,4.19-1.07,8.45-.64,12.69.98,9.62,5.66,16.78,14.74,20.52,8.71,3.58,17.84,3.6,26.97,2.11,7.52-1.23,14.13-4.47,19.79-10.13.44,2.42.87,4.5,1.19,6.6.22,1.47.95,1.9,2.43,1.88,6.49-.08,12.99-.15,19.48.03,2.27.07,2.56-.72,2.55-2.7-.07-19.48-.04-38.96-.04-58.45Zm-26.26,27.67c-1.39,8.46-9,15.48-17.77,17.09-2.29.42-4.6.6-6.93.44-5.7-.38-9.14-2.87-10.25-7.4-1.43-5.83.52-11.3,5.14-14.07,4.04-2.43,8.58-3.43,13.11-4.44,3.35-.75,6.7-1.52,10.05-2.29,2.51-.58,4.82-1.61,7.41-3.52-.24,5.1-.04,9.72-.77,14.19Z"/>
  <path class="cls-3" d="m935.43,520.22v-2.44c-5.61,2.97-11.08,5.34-16.7,7.38-20.81,7.6-42.43,11.45-64.35,13.81-1.82.19-2.66.95-3.36,2.43-2.35,4.98-2.84,10.3-2.9,15.69-.15,12.5,6.78,22.01,18.51,25.18,7.69,2.08,15.52,2.2,23.34.84,7.58-1.31,14.28-4.49,19.85-10.21.42,2.39.81,4.5,1.16,6.62.23,1.37.85,1.94,2.39,1.92,6.57-.1,13.14-.11,19.71,0,1.85.03,2.41-.41,2.4-2.34-.08-19.63-.05-39.26-.05-58.88Zm-26.24,27.48c-1.26,8.67-8.99,15.79-17.99,17.4-2.22.4-4.44.56-6.69.42-5.8-.37-9.2-2.86-10.35-7.58-1.4-5.74.67-11.22,5.35-13.99,3.34-1.97,7.05-2.99,10.79-3.85,3.5-.81,7.03-1.53,10.53-2.33,3.05-.69,6.02-1.6,8.47-3.56,0,4.59.52,9.12-.11,13.49Z"/>
  <path class="cls-3" d="m807.91,517.39c-2.54-5.82-6.94-8.63-13.38-8.63-6.59,0-11.45,2.42-14.16,8.63-1.66,3.8-2.32,7.83-2.52,11.91-.37,7.6.05,15.08,4.5,21.68,2.23,3.3,5.12,5.72,9.16,6.44,7.28,1.29,13.46-2.31,16.86-9.73,2.02-4.41,2.3-9.11,2.43-13.94-.29-5.51-.62-11.11-2.91-16.35Zm-1.84,26.3c-.65,2.7-2.05,5.04-3.94,7.05-4.51,4.81-11.6,4.62-15.85-.42-2.89-3.43-4.15-7.54-4.67-11.9-.24-1.98-.25-4-.32-5.25.1-5.17.38-9.56,2.05-13.73,2.04-5.08,5.22-7.14,11.01-7.16,5.48-.02,8.71,1.91,10.52,7.04,2.81,7.95,3.18,16.13,1.2,24.36Z"/>
  <path class="cls-3" d="m573.58,508.41c-2.97-1.65-6.26-1.73-9.92-1.74-1.95.2-4.25.44-6.56.65-.94.09-1.72.37-2.05,1.35-.84,2.5-1.73,4.97-2.5,7.49-.55,1.79.48,2.8,2.1,2.51,6.12-1.09,12.37-1.49,18.35-3.37,2.03-.64,2.72-1.98,2.89-3.88.16-1.73-1.17-2.38-2.31-3.01Zm-15.67,6.18c-1.03.18-1.28-.19-.89-1.18.6-1.55,1.23-2.61,3.28-2.81,3.91-.38,7.73-.77,11.44,1.06-4.47,1.84-9.2,2.13-13.82,2.93Z"/>
  <path class="cls-3" d="m901.48,508.28c-2.65-1.33-5.51-1.51-8.84-1.64-.74.05-1.94.1-3.13.21-5.26.48-8.88,4.41-9.06,9.68-.06,1.6.81,2.39,2.14,2.15,6.19-1.13,12.52-1.44,18.55-3.45,1.59-.53,2.58-1.37,2.69-3.19.11-1.89-.77-2.97-2.34-3.76Zm-16.85,6.43c.56-2.52,1.93-3.78,4.25-4.24,3.57-.71,8.5-.26,11.26,1.38-5.26,1.67-10.33,2.14-15.5,2.86Z"/>
  <path class="cls-8" d="m859.76,520.95c-3.9-.3-7.81-.52-11.71-.84-1.65-.14-2.39.56-2.39,2.17,0,1.84,0,3.67,0,5.51,0,1.6-.03,3.2,0,4.79.03,1.16-.34,2.58,1.09,3.15,1.53.61,2.35-.6,3.09-1.65,2.8-4.01,6.35-7.15,10.78-9.25.98-.46,1.92-.97,1.72-2.27-.23-1.48-1.47-1.52-2.58-1.61Zm-10.39,8.13c-.02-5.14-1.31-4.76,4.27-4.21-1.43,1.31-2.94,2.29-4.27,4.21Z"/>
  <path class="cls-3" d="m534.3,522.44c-.31-1.44-1.58-1.41-2.67-1.51-2.95-.26-5.9-.46-8.85-.68,0,.02,0,.03,0,.05-.64-.04-1.27-.08-1.91-.13-2.92-.2-3.13,0-3.14,2.97-.01,3.2-.01,6.4,0,9.6,0,1.03-.11,2.17,1.23,2.54,1.25.35,1.87-.5,2.52-1.37,2.94-3.91,6.66-6.87,11.02-9.04,1.03-.51,2.11-1,1.8-2.44Zm-12.69,5.85c-1.1-3.78-.75-4.11,3.97-3.42-1.47,1.27-2.72,2.34-3.97,3.42Z"/>
  <path class="cls-3" d="m288.5,540.14c-.52-13.73-5.89-24.28-19.72-29.64,2.45-1.29,4.57-2.41,6.4-4,7.12-6.19,9.84-14.06,9.42-23.37-.68-15.14-9.24-26.61-23.43-30.87-4.94-1.48-10.03-2.09-15.18-2.1-21.08-.03-42.17.01-63.25-.06-1.83,0-2.25.49-2.24,2.27.05,42.25.06,84.5,0,126.74,0,1.98.64,2.34,2.44,2.33,18.92-.06,37.84-.03,56.75-.04,5.46,0,10.9-.4,16.26-1.43,9.34-1.79,17.78-5.31,24.14-12.76,6.67-7.82,8.8-17.05,8.42-27.07Zm-81.48-65.26c0-1.04-.22-2.08,1.48-2.05,12.26.24,24.53-.4,36.79.39,2.09.14,4.1.69,6.03,1.52,1.96.84,3.58,2.11,4.75,3.91,6.17,9.5.31,21.76-10.91,22.42-6.07.36-12.18.06-18.27.06v.18c-5.85,0-11.71-.05-17.56.03-1.67.03-2.39-.23-2.36-2.18.12-8.1.05-16.19.05-24.29Zm41.25,83.43c-2.19.54-4.43.69-6.67.69-10.81,0-21.63-.03-32.44.04-1.64.01-2.19-.38-2.17-2.1.08-10.42.09-20.83,0-31.25-.02-1.81.66-2.05,2.22-2.03,5.93.08,11.86.03,19.06.03,5.52.28,12.36-.6,19.12.41,9.55,1.42,14.14,6.26,14.53,14.94.43,9.49-4.98,17.12-13.63,19.26Z"/>
  <path class="cls-3" d="m573.26,543.12c-1.48.32-2.96.68-4.44,1-4.92,1.06-9.93,1.82-14.43,4.26-2.72,1.48-3.99,5.03-3.15,8.36.59,2.35,2.29,3.37,5.86,3.51.4.02.8,0,1.2,0,4.02-.01,7.78-1,11.05-3.38,3.85-2.8,6.43-6.45,6.8-11.35.17-2.28-.63-2.88-2.89-2.4Zm-11.38,13.22c-1.47.34-3.02.39-4.53.39-1.04,0-2.48.26-2.7-1.31-.21-1.52-.13-3.09,1.51-3.97,2.05-1.11,4.26-1.83,6.53-2.34,3.1-.69,6.2-1.36,9.71-2.13-1.96,5.39-5.53,8.22-10.51,9.36Z"/>
  <path class="cls-3" d="m901.33,543.1c-1.48.31-2.96.68-4.44,1.01-4.84,1.05-9.77,1.79-14.22,4.14-2.97,1.57-4.25,4.84-3.44,8.44.54,2.38,2.36,3.46,6.06,3.57.32,0,.64,0,.96,0,4.11,0,7.95-1.03,11.26-3.49,3.74-2.78,6.27-6.4,6.66-11.19.18-2.29-.63-2.94-2.84-2.48Zm-17.35,13.54c-.78-.2-1.35-.51-1.38-1.38-.03-1.46-.04-2.91,1.48-3.76,2.18-1.23,4.55-1.93,6.96-2.49,3-.69,6.03-1.3,9.19-1.97-2,6.63-10.01,11.23-16.25,9.61Z"/>
  <path class="cls-3" d="m256.55,538.36c-.67-5.56-3.15-7.96-9.78-9-5.65-.89-11.36-.14-15.98-.37-5.95,0-10.83.07-15.72-.03-2.12-.04-2.81.81-2.79,2.85.07,6.41.07,12.82,0,19.23-.02,1.97.72,2.72,2.68,2.71,9.13-.06,18.27-.03,27.4-.05,2.42,0,4.78-.35,7.02-1.37,5.1-2.34,7.92-7.81,7.17-13.96Zm-8.84,10.82c-1.71.73-3.52,1.04-5.38,1.01-.16,0-.32,0-.48,0h-11.52c-4.24,0-8.48-.07-12.72.04-1.52.04-1.87-.44-1.84-1.89.09-4.72.03-9.44.03-14.16,0-.88-.17-1.77,1.25-1.74,9.59.21,19.21-.47,28.78.37,4.94.43,6.64,1.94,7.09,5.35.7,5.33-1.15,9.3-5.19,11.02Z"/>
  <path class="cls-3" d="m244.34,478.44c-9.92-.64-19.85-.14-29.77-.29-1.78-.03-2.3,1.02-2.27,2.65.05,4.08.12,8.17-.02,12.25-.09,2.38.9,3.06,3.12,3.01,4.72-.11,9.45-.03,14.17-.03v-.18c5.12,0,10.25.14,15.36-.05,3.14-.12,6.41-1.07,7.27-4.48,1.88-7.42.38-12.34-7.86-12.87Zm4.52,11.81c-.52.99-1.44,1.44-2.47,1.75-1.56.48-3.16.47-4.76.49-.16,0-.32,0-.48,0h-10.57c-4.32,0-8.65-.06-12.97.04-1.48.03-1.95-.37-1.87-1.87.13-2.4.07-4.8.02-7.2-.03-1.13.12-1.75,1.52-1.73,8.72.09,17.45.11,26.17.15.48,0,.96.07,1.43.15,3.98.7,5.88,4.62,3.97,8.22Z"/>
  <path class="cls-3" d="m621.61,613.32c-.78-.24-1.62-.18-2.39-.5-1.56-.33-3.09-.85-4.72-.73-.54.02-1.06-.13-1.57-.27-.65-.16-1.32-.19-1.99-.27-1.24-.24-2.44-.62-3.63-1.04-.24-.03-.48-.05-.71-.02-1.87-.02-3.7-.33-5.52-.73-13.81-1.77-27.63-3.32-41.54-4.14-11.75-.69-23.52-.93-35.28-1.33-7.22-.25-14.41.65-21.62.49-4.9-.11-9.77.34-14.64.62-11.91.71-23.79,1.79-35.65,3.15-21.45,2.46-42.7,6.07-63.71,11-20.11,4.72-40.44,7.91-61.06,8.7-18.91.73-37.8-.07-56.59-2.76-26.35-3.77-51.83-10.59-76.35-20.97-2.2-.98-13.06-5.84-19.15-9.69,0,0,1.72,1.49,4.46,3.56.55.4,6.28,4.49,12.65,8.16,34.55,19.3,71.71,30.42,111.54,32.99,27.1,1.75,53.81-1.09,79.88-8.68,31.06-9.05,62.82-13.76,94.98-16.3,13.91-1.1,27.84-1.74,41.78-2.09,23.49-.58,46.97-.21,70.43,1.04,11.44.62,22.87,1.42,34.31,2.14,1.05.11,2.14.63,3.07-.34-2.14-1.36-4.7-1.22-7-2Z"/>
  <path class="cls-5" d="m635.76,616.82s-2.64-.82-6.77-2.03c0,0,0,0,0,0-.68-.22-1.37-.45-2.06-.65-4.72-1.37-9.45-2.64-14.2-3.84-5.97-1.54-12.26-3.04-17.78-4.07h-.05c-25.2-5.19-50.77-8.13-76.6-9.32-22.77-1.05-45.51-.38-68.2,1.77-19.56,1.85-38.95,4.75-58.09,9.14-18.75,4.3-37.61,7.88-56.79,9.56-18.79,1.65-37.6,1.99-56.44.75-18.42-1.21-36.63-3.73-54.67-7.61-10.17-2.19-20.15-5.03-30.11-7.99-5.02-1.63-10.81-3.66-10.81-3.66.68.37,1.34.71,1.99,1.05,1.12.54,8.36,3.98,14.17,6.19,12.29,4.49,24.8,8.24,37.56,11.21,24.07,5.61,48.48,8.14,73.14,8.6,7.45.14,14.88-.5,22.31-.88,10.26-.53,20.42-1.82,30.57-3.31,15.48-2.28,30.59-6.39,45.94-9.35,27.99-5.39,56.24-8.5,84.7-9.4,13.36-.43,26.75-.39,40.13.25,11.76.56,23.5,1.32,35.21,2.55,4.06.43,8.12.91,12.18,1.41,3.88.64,37.9,6.28,54.67,9.63Z"/>
  <path class="cls-3" d="m593.33,613.63s33.62,1.98,42.43,3.19c0,0-39.37-7.22-52.86-8.87v1.63l10.43,4.06Z"/>
  <path class="cls-3" d="m942.77,505.55c-.05-.21-.09-.42-.13-.64-2.12-9.75-6.78-17.82-15.16-23.62-5.43-3.76-11.41-5.74-17.64-7.03-5.62-1.08-11-1.46-15.65-1.49h-1.79c-4.28.05-7.81.36-10.13.65-1.72.24-3.45.47-5.15.82-7.53,1.57-14.63,4.02-20.78,8.96-2.64,2.12-4.61,4.76-7.08,7.44v-1.59c0-13.21.01-26.42,0-39.63-.01-5.95-3.91-9.26-8.3-9.48-8.71-.44-17.43-.25-26.14-.13-5.04.07-7.71,3.14-8.37,6.47-.04,9.36-.07,18.73-.13,28.09,0,.84.32,1.75-.28,2.54-3.44-1.07-6.81-2.38-10.31-3.22-7.49-1.43-13.95-.93-18.06-.27-5.2.98-10.22,2.52-14.92,5.03-3.68,2.4-7.37,4.82-10.22,8.21-2.04,2.43-4.23,4.76-6.19,7.5,0-2.9-.07-5.81.03-8.71.05-1.39.05-2.99-.6-3.94-1.67-2.42-.93-4.39.08-6.74,1.09-2.54.37-5.37.49-8.07.07-1.52.07-3.03.11-4.55-.03-4.31-.03-8.62-.11-12.92-.11-5.9-3.97-8.96-8.22-9.3-4.78-.39-9.56.13-14.32-.34-3.76.04-7.51.13-11.27.12-5.58-.02-8.52,2.95-9.47,7.05,0,9.13-.01,18.27-.01,27.4.28,1.92-1.24,1.08-1.9,1.09-7.44.07-14.88.02-22.32.05-5.19.03-7.73,1.92-9.4,6.89-.69,2.06-1.3,4.16-1.96,6.23-2.26,7.12-4.52,14.23-6.78,21.35-.96,3.1-1.91,6.21-3,9.72-1.82-5.92-3.51-11.4-5.21-16.89-2.32-7.11-4.64-14.22-6.96-21.33-1.06-3.26-3.35-5.08-6.68-5.66-4.53-.79-9.11.01-13.65-.45-5.28.04-10.57.09-15.86.13-3.85.02-6.88,1.51-8.58,5.06-.57,1.18-.98,1.11-1.92.48-3.48-2.34-7.24-4.12-11.28-5.23-13.89-3.84-27.88-3.91-41.82-.5-12.09,2.95-21.65,9.41-27.08,21.05-.08.18-.33.28-.55.47-4.01-9.45-10.38-16.69-19.99-20.42-13.74-5.32-27.43-4.73-40.79,1.54-1.17.55-1.85.7-2.85-.3-1.74-1.72-4.05-2.16-6.44-2.16-7.62,0-15.23-.04-22.85.01-6.14.04-9.7,3.63-9.71,9.74,0,31.83,0,63.65,0,95.48,0,6.01,3.56,9.6,9.52,9.62,7.85.02,15.71.01,23.57,0,6.87,0,10.21-3.31,10.21-10.11,0-18.04.01-36.08,0-54.11,0-6.63,3-11.66,8.19-15.51,2.21-1.63,5.4-1.04,6.97,1.17,2.58,3.64,3.79,7.66,3.78,12.16-.07,18.52-.03,37.04-.02,55.56,0,1.12.03,2.25.19,3.35.64,4.31,4.03,7.43,8.38,7.46,8.82.08,17.64.07,26.45,0,3.71-.03,6.72-2.33,8.03-5.84.2-.55.09-1.27.87-1.59,3.22,3.1,6.93,5.5,11.16,6.88,14.13,4.6,28.18,4.51,42.02-1.24,1.39-.58,2.45-1.07,3.82.24,1.28,1.22,3.1,1.59,4.92,1.59,8.02-.01,16.03-.01,24.05,0,2.18,0,4.06-.77,5.7-2.19,2.46-2.13,3.05-4.94,3.04-8.02-.02-14.75,0-29.5,0-44.25v-2.39c.76.64,1,1.3,1.23,1.95,5.74,16.04,11.48,32.08,17.23,48.12,1.73,4.82,4.48,6.78,9.54,6.79,8.18.01,16.35,0,24.53,0,5.76,0,8.3-1.79,10.23-7.17,7.55-21,15.09-42,22.67-62.99.25-.71.24-1.68,1.26-2.12v11.71c0,17.08-.02,34.15,0,51.23.01,5.44,3.48,9.26,8.56,9.31,8.74.08,17.48.07,26.21,0,4.08-.04,7.26-2.8,8.25-6.79.51-2.07.24-4.15.28-6.22.05-2.65.01-5.3.01-7.95,1.01.83,1.56,1.7,2.13,2.56,14.65,22.27,42.05,24.95,58.56,17.05,1.51-.72,2.73-1.26,4.24.12,1.05.95,2.57,1.26,4.06,1.26,8.49,0,17,.07,25.49-.03,3.72-.05,6.26-2.1,7.8-5.45.29-.62.09-1.49,1.01-1.92,3.29,3.05,7.04,5.51,11.35,6.91,13.9,4.5,27.73,4.38,41.35-1.1,1.75-.7,3.05-1.22,4.65.26,1.12,1.03,2.7,1.34,4.27,1.34,8.18,0,16.35.05,24.53-.02,3.84-.03,7.2-2.67,8.13-6.32.33-1.3.33-2.7.33-4.05,0-18.7-.02-37.41-.04-56.12-.02-9.32-.84-15.16-1.4-18.08Zm-2.05,74.67c0,4.49-1.95,6.46-6.41,6.47-7.3.01-14.59-.01-21.89.02-1.94,0-3.75-.38-4.91-2-1.16-1.62-2.3-1.47-3.9-.69-13.19,6.48-26.85,6.67-40.69,2.59-5.42-1.59-9.92-4.79-13.43-9.29-.65-.82-1.24-1.8-2.51-1.38-1.39.44-1.3,1.66-1.32,2.79-.02.96.03,1.93-.04,2.88-.22,2.9-2.19,5.01-5.11,5.04-8.34.09-16.68.05-25.01,0-1.69,0-3.07-.84-4.1-2.19-.83-1.1-1.74-1.1-2.93-.5-24.07,12.12-50.29,2.67-61.49-22.13-.2-.44-.39-.88-.56-1.33-.4-1.05-.96-1.92-2.27-1.66-1.33.26-1.43,1.36-1.43,2.43-.01,6.01,0,12.03,0,18.04,0,5.84-1.55,7.38-7.42,7.38-7.46,0-14.91,0-22.37,0-4.47,0-6.46-1.98-6.46-6.43,0-23.97,0-47.94,0-71.91,0-.72.02-1.45-.07-2.16-.08-.69-.53-1.16-1.23-1.31-.76-.15-1.49-.02-1.89.7-.35.62-.56,1.32-.8,2-8.92,24.76-17.84,49.51-26.75,74.27-1.41,3.91-2.74,4.85-6.94,4.85-8.1,0-16.19,0-24.29,0-3.68,0-5.15-1.04-6.41-4.56-7.07-19.73-14.11-39.46-21.21-59.18-.47-1.3-.48-3.45-2.67-3.03-2.14.41-1.47,2.38-1.47,3.79-.03,18.76-.02,37.52-.02,56.28,0,4.89-1.8,6.71-6.63,6.71-7.22,0-14.43-.01-21.65.01-1.94,0-3.74-.38-4.91-2-1.16-1.61-2.3-1.46-3.9-.68-13.45,6.53-27.31,6.76-41.36,2.32-5.16-1.63-9.41-4.73-12.76-9.03-.64-.82-1.26-1.8-2.52-1.39-1.39.45-1.24,1.69-1.25,2.82-.02,1.04.04,2.09-.09,3.12-.36,2.8-2.32,4.76-5.13,4.79-8.65.09-17.31.1-25.97,0-3.39-.04-5.26-2.34-5.26-6.11-.01-18.76-.01-37.52,0-56.28,0-2.49-.19-4.96-.38-7.44-.34-4.5-2.85-7.53-6.38-9.91-1.51-1.02-8.4-.51-9.96.64-6.11,4.47-9.26,10.45-9.26,18.06,0,18.04,0,36.08,0,54.11,0,5.1-1.85,6.96-6.93,6.96-7.7,0-15.39.01-23.09,0-4.27,0-6.33-2.04-6.33-6.36-.02-15.87,0-31.75,0-47.62s0-31.26,0-46.9c0-5.18,1.74-6.91,6.92-6.91,7.45,0,14.91.02,22.37-.01,1.97,0,3.71.48,4.79,2.19,1.18,1.86,2.39,1.77,4.21.79,12.92-6.96,26.38-7.57,39.86-2.2,10,3.98,16.08,11.84,18.86,22.23.37,1.38.17,3.43,2.23,3.49,2.14.06,1.92-2.04,2.28-3.39,3.05-11.41,10.81-18.39,21.56-22.02,15.07-5.08,30.37-5.01,45.63-.6,4.5,1.31,8.54,3.59,12.18,6.58.74.61,1.46,1.32,2.56.81,1.09-.51,1.03-1.46,1.06-2.44.1-3.4,2.02-5.38,5.41-5.39,9.38-.05,18.76-.03,28.14,0,3.02,0,4.55,1.24,5.54,4.33,4.32,13.57,8.62,27.14,12.93,40.71.1.3.21.6.29.91.26.98.63,1.89,1.81,1.95,1.32.07,1.73-.92,2.06-1.95,1.97-6.17,3.95-12.34,5.92-18.51,2.41-7.54,4.82-15.09,7.24-22.63,1.24-3.86,2.56-4.83,6.64-4.83,8.82,0,17.64.02,26.45.07.94,0,1.76-.04,2.27-.96.48-.86.08-1.54-.44-2.19-1.01-1.26-1.25-2.71-1.24-4.28.03-7.37,0-14.75.02-22.13.01-4.08,1.98-6.07,6.03-6.08,8.1-.02,16.19-.02,24.29,0,3.96.01,5.9,1.93,5.92,5.91.04,7.54,0,15.07.02,22.61,0,1.95-.52,3.61-2.1,4.88-1.3,1.04-1.29,2.16,0,3.19,1.67,1.33,2.11,3.1,2.1,5.12-.04,5.37-.04,10.74,0,16.11.01,1.37-.53,3.19,1.37,3.67,2.01.51,2.2-1.44,2.76-2.67,5.93-12.93,15.35-21.8,29.52-24.82,10.43-2.23,20.55-1.23,30,4.14,2.32,1.32,3.44.66,3.45-2.01.02-9.94,0-19.88.01-29.82,0-4.46,1.83-6.31,6.25-6.31,7.78-.02,15.55-.02,23.33,0,4.39,0,6.23,1.86,6.23,6.33.02,15.55,0,31.1,0,46.66,0,.72,0,1.45.03,2.16.05.97.48,1.74,1.48,1.93,1.03.2,1.66-.43,2.03-1.31,6.21-14.69,18.59-20.16,33.24-22.08,10-1.31,20-1.17,29.83,1.35,16.82,4.31,26.4,15.77,27.97,33.08.52,5.68.46,11.37.47,17.05.02,17.24,0,34.47,0,51.71Z"/>
</svg>