<?xml version="1.0" encoding="UTF-8"?>
<svg id="Capa_7" data-name="Capa 7" xmlns="http://www.w3.org/2000/svg" viewBox="0 0 1080 1080">
  <defs>
    <style>
      .cls-1 {
        fill: #b2112c;
      }

      .cls-2 {
        fill: #0a9591;
      }

      .cls-3 {
        fill: #07938f;
      }

      .cls-4 {
        fill: #05938f;
      }

      .cls-5 {
        fill: #119894;
      }

      .cls-6 {
        fill: #a4a2a3;
      }

      .cls-7 {
        fill: #a2a1a1;
      }

      .cls-8 {
        fill: #a2a1a2;
      }

      .cls-9 {
        fill: #a1a1a1;
      }

      .cls-10 {
        fill: #fdfdfd;
      }

      .cls-11 {
        fill: #bfabae;
      }

      .cls-12 {
        fill: #089490;
      }

      .cls-13 {
        fill: #05928e;
      }

      .cls-14 {
        fill: #06938f;
      }

      .cls-15 {
        fill: #c4e4e4;
      }

      .cls-16 {
        fill: #fff;
        font-family: MicrosoftJhengHeiUIRegular, 'Microsoft JhengHei UI';
        font-size: 14px;
      }

      .cls-17 {
        fill: #a2a2a2;
      }
    </style>
  </defs>
  <g>
    <path class="cls-15" d="m164.89,638.48l-.22.02-.22-.04v-10.02c.15-.04.3-.04.44-.02,1.45,3.36,1.47,6.71-.01,10.07Z"/>
    <path class="cls-1" d="m343.31,604.65c12.58-5.34,25.17-10.68,37.76-16.01,3.63-1.54,7.33-2.93,10.93-4.55,2.72-1.22,5.44-1.36,8.21-.44,5.23,1.73,10,4.33,13.94,8.22,6.94,6.87,5.47,14.06-3.6,17.58-12.34,4.8-24.71,9.5-37.07,14.25-7.37,2.83-14.74,5.65-22.1,8.48-5.17,1.99-6.71,4.82-5.47,10.25,4.67,20.52,10.58,40.72,15.55,61.17,3.09,12.72,5.82,25.49,6.35,38.63.13,3.16.15,6.33-.77,9.41-.65,2.18-1.99,3.62-4.3,4.14-4.71,1.07-9.41,1.18-14.1.01-4.81-1.2-8.07-4.43-10.67-8.46-3.62-5.6-5.56-11.89-7.3-18.24-6.46-23.69-12.32-47.52-17.53-71.52-.24-1.09-.24-2.28-.99-3.23-1.11-1.63-1.19-3.44-.9-5.31-.55-2.65-2.28-2.14-4.06-1.52-10.26,3.59-20.56,7.07-30.76,10.82-3.5,1.29-6.12.59-8.47-2.07-3.51-3.97-5.79-8.54-6.72-13.77-.44-2.47.29-4.13,2.79-5.19,10.98-4.64,21.9-9.43,32.85-14.14,6.1-2.62,7.22-4.95,5.6-11.28-5.29-20.63-10.88-41.19-14.83-62.15-1.97-10.44-3.18-20.99-4.52-31.52-1.25-1.65-.56-3.47-.44-5.24.11-3.17-2-2.29-3.59-1.82-6.13,1.85-12.21,3.86-18.32,5.76-13.81,4.31-27.48,9.11-41.55,12.55-5.34,1.31-10.74,1.69-16.13-.03-4.02-1.29-6.36-3.85-7.46-8.02-2.9-10.95,2.58-20.25,12.44-23.61,69.63-23.75,139.18-47.76,209.28-70.11,10.11-3.22,20.24-5.01,30.82-3.85,6.9.76,13.4,2.7,19.28,6.49,2.8,1.8,4.96,4.16,6.32,7.23,2.06,4.66,1.41,8.11-2.3,11.66-2.5,2.39-5.47,4.11-8.54,5.65-13.08,6.53-26.92,11.08-40.84,15.33-37.83,11.55-75.72,22.87-113.59,34.28-.42.13-.84.26-1.25.4-3.57,1.15-4.19,2.41-2.82,5.86,6.42,16.13,12.33,32.45,17.55,49.01,4.64,14.71,8.98,29.52,13.46,44.28.88,2.9,1.59,3.27,4.29,2.3.89-1.21,2.2-1.53,3.58-1.7Z"/>
    <path class="cls-13" d="m164.89,638.48c0-3.36,0-6.71.01-10.07,1.51-29.6,12.36-55.92,28.26-80.48,1.19-1.84,2.49-3.62,3.66-5.47,1.22-1.94,2.63-2.44,4.56-.96,1.48,1.14,3.19,1.82,4.96,2.38,3.34,1.05,3.89,2.47,1.95,5.35-6.71,10.01-12.61,20.47-17.26,31.6-6.95,16.61-11.05,33.83-10.76,51.95.42,26.68,9.75,50.04,26.66,70.48,16.27,19.66,36.8,33.73,59.5,44.87,26.19,12.85,53.92,20.93,82.51,26.23,34.8,6.45,69.93,8.46,105.25,7.3,40.06-1.31,79.6-6.69,118.66-15.63,57.73-13.22,112.37-34.25,163.15-64.89,31.83-19.2,61.11-41.65,86.48-68.95,19.94-21.46,36.71-45.03,47.57-72.45,6.32-15.97,10.02-32.51,10.15-49.74.07-8.46-.87-16.83-2.76-25.08-.55-2.37-.68-4.7.45-6.94,1.92-3.82,5.73-4.32,8.53-1.08,2.18,2.53,3.26,5.61,3.91,8.81,2.43,11.96,3,24.04,1.82,36.17-3.37,34.42-18.07,64.22-38.04,91.75-21.73,29.94-48.48,54.83-78.24,76.58-51.08,37.33-107.61,63.45-168.21,81.09-28.02,8.16-56.52,14.14-85.38,18.34-31.79,4.62-63.76,6.95-95.9,6.38-45.82-.81-90.86-6.7-134.44-21.54-26.86-9.14-52.11-21.41-74.38-39.23-20.69-16.56-36.88-36.52-45.89-61.77-4.04-11.33-6.22-23.01-6.75-35.01Z"/>
    <path class="cls-13" d="m938.33,409.13c1.15,18.53,1.18,37.06.56,55.59-.35,10.63-1.53,20.99-6.87,30.48-4.3,7.63-9.92,14.02-17.12,19.01-2.86,1.98-5.98,3.33-9.41,3.86-.97.15-2.3.76-2.87-.39-.65-1.32.86-1.71,1.62-2.29,12.53-9.49,15.85-26.45,7.76-39.8-6.79-11.21-19.79-16.67-32.7-13.75-12.25,2.77-21.74,13.45-23.01,26.11-.44,4.36.83,8.52,2.37,12.56,1.51,3.95,3.55,7.62,5.91,11.13.45.66,1.57,1.38.72,2.2-.77.75-1.62-.2-2.32-.64-12.13-7.69-20.06-18.67-24.86-32.04-3.36-9.36-4.83-19.1-4.61-28.97.73-33.83-.56-67.63-1.18-101.43-.08-4.51.23-4.78,4.7-4.81,31.82-.17,63.63-.34,95.45-.51,3.81-.02,4.24.31,4.38,4.16.52,14.48,1.04,28.96,1.46,43.45.15,5.35.02,10.71.02,16.06Z"/>
    <path class="cls-9" d="m415.01,732.4c-1.41,0-2.82.02-4.22,0-3.82-.06-6.39-2.16-6.86-5.58-.6-4.38,1.38-7.97,5.3-8.71,4.12-.78,8.33-1.12,12.52-1.55,13.69-1.41,27.33-3.19,40.95-5.19,17.44-2.56,34.78-5.61,52.03-9.18,25.08-5.2,49.9-11.46,74.43-18.86,45.5-13.72,89.47-31.24,131.62-53.24,40.15-20.95,77.89-45.57,112.9-74.32,8.89-7.3,17.56-14.86,26.11-22.56.72-.65,1.43-1.96,2.6-.91,1.37,1.23-.1,2.02-.78,2.78-27.23,30.36-58.2,56.46-91.52,79.84-29.04,20.38-59.68,38.03-91.74,53.21-36.02,17.05-73.31,30.67-111.81,40.98-23.56,6.31-47.4,11.33-71.48,15.15-14.72,2.33-29.51,4.16-44.35,5.53-11.88,1.1-23.78,1.92-35.69,2.61Z"/>
    <path class="cls-13" d="m266.36,465.1c2.49-1.98,4.64-3.73,6.83-5.42,44.17-34.15,92.81-60.24,144.91-80.03,38.42-14.6,77.97-25.07,118.51-31.83,33.54-5.6,67.29-8.49,101.29-8.08,37.92.46,75.35,4.82,111.95,15.09,24.53,6.88,47.99,16.29,69.88,29.44,2.19,1.32,3.19,2.77,2.69,5.33-.32,1.63-.22,3.33-.45,4.98-.44,3.2-1.61,3.72-4.4,1.94-13.05-8.36-26.87-15.21-41.29-20.87-23.97-9.41-48.8-15.46-74.22-19.32-29.65-4.5-59.47-5.71-89.39-4.55-43.34,1.68-85.94,8.41-127.89,19.35-49.87,13.01-97.81,30.96-143.01,55.9-16.16,8.92-31.79,18.69-46.74,29.52-1.52,1.1-3.12,1.84-4.93,2.36-6.83,1.97-13.61,4.09-20.41,6.13-.9.27-1.79.79-3.35.06Z"/>
    <path class="cls-1" d="m629.26,453.78c1,.79,1.66,1.74,1.76,3.08.71,10.1-9.32,18.16-18.98,15.23-3.24-.98-6.05-2.76-8.73-4.75-4.62-3.43-7.81-8.01-10.42-13.05-2.34-4.52-4.12-9.28-6.01-13.99-2.3-3.36-3.26-7.2-4-11.12-.68-1.94-1.35-3.88-2.03-5.83-.17.03-.34.06-.5.08-.77,7.89-1.53,15.78-2.31,23.67-1.12,11.45-1.51,22.96-3.13,34.36-.15,1.04-.34,2.09-.72,3.06-1.71,4.46-4.79,5.57-8.99,3.26-4.24-2.34-7.45-5.82-10.36-9.61-6.96-9.04-11.97-19.17-16.49-29.57-2.28-2.4-2.95-5.56-4.05-8.51-.23-.63-.26-1.35-.47-2.01-.77-2.02-1.54-4.04-2.56-6.71-.89,5.52-.84,10.39-1.04,15.22-.56,13.43-1.73,26.81-2.83,40.19-.69,8.44-7,14.16-15.47,13.94-3-.08-3.26-.41-2.61-3.38,3.32-15.12,4.9-30.48,6.42-45.84,1.17-11.88,2.23-23.77,3.26-35.66.12-1.33.83-2.02,1.72-2.75,5.3-4.36,10.99-8.14,16.86-11.7,1.73-1.05,2.5-.66,3.52.87,5.95,8.95,10.18,18.79,14.77,28.44,2.11,4.43,4.23,8.86,6.42,13.25.94,1.87,2.12,3.61,3.8,4.98.49-.66.3-1.26.27-1.85-1.32-2.71.28-5.24.49-7.85.8-15.69,1.5-31.38,3.79-46.94.04-.26.07-.52.09-.78.26-3.56,1.9-5.55,5.67-6.19,4.65-.8,9.25-1.97,13.91-2.81,1.97-.35,2.54.16,3.01,1.95,3.76,14.24,7.99,28.34,14.26,41.71,4.34,9.24,9.24,18.16,17.49,24.66,1.81.4,3.11,1.53,4.19,2.96Z"/>
    <path class="cls-1" d="m647.77,423.94c-.89-10.94-2.67-21.76-4.54-32.57-.43-2.47-.1-4.9.29-7.33.23-1.42.83-2.06,2.46-1.86,6.71.82,12.17,3.15,12.95,12.39,1.11,13.14,2.07,26.26,1.91,39.45-.1,8.63-1.13,17.15-3.17,25.55-.4,1.65-1.14,3.06-2.27,4.36-5.2,5.98-10.96,11.32-17.56,16.18-1.36-5.36-1.1-10.29,1.49-14.94,1.36-2.45,2.86-4.84,4.52-7.09,1.05-1.41.78-2.06-.49-3.08-8.99-7.23-17.4-15.07-24.44-24.26-5.78-7.54-10.12-15.79-12.11-25.15-1.28-6.04.93-11.11,6.23-14.43,3.39-2.12,6.04-1.74,8.55,1.38,2.93,3.64,5.21,7.71,7.45,11.77,5.89,10.67,12.28,21.02,19.84,31.63-.13-2.04-.22-3.34-.3-4.65-1.45-2.32-.69-4.89-.82-7.35Z"/>
    <path class="cls-1" d="m491.94,571.59c-2.44-.24-4.92-.31-7.33-.74-11.24-2.02-17.26-13.83-12.41-24.2,1.01-2.16,2.29-4.18,3.95-5.87,11.15-11.26,24.48-16.84,40.42-14.59,14.02,1.98,20.08,15.86,12.02,27.49-7.1,10.24-17.42,15.44-29.56,17.26-2.34.35-4.7.65-7.1.65Z"/>
    <path class="cls-13" d="m949.07,404.25c.46,12.4.53,30.92-.16,49.45-.33,8.72-.92,17.36-4.72,25.42-.34.71-.66,1.43-1.01,2.14-.27.55-.54,1.27-1.31.88-.54-.27-.4-.92-.24-1.43,3.56-11.54,2.81-23.47,3.04-35.28.57-28.81-.93-57.59-1.9-86.38-.15-4.39-.14-8.78-.3-13.17-.16-4.36-.65-4.79-4.91-4.77-30.76.16-61.51.32-92.27.53-1.82.01-3.14.13-3-2.46.19-3.73.43-4.4,3.24-4.42,32.78-.19,65.55-.35,98.33-.57,1.95-.01,2.73.88,2.91,2.58.16,1.57.27,3.15.32,4.73.61,18.87,1.2,37.74,1.99,62.74Z"/>
    <path class="cls-9" d="m343.31,604.65c-1.03.92-2.3,1.33-3.58,1.7-2.37-8.16-4.69-16.34-7.12-24.49-7.06-23.63-14.97-46.96-24.09-69.87-1.06-2.65-.27-4.22,2.69-5.12,13.5-4.14,27.02-8.23,40.53-12.35,30.54-9.32,61.41-17.54,91.6-28,9.37-3.25,18.7-6.63,27.34-11.64.23-.13.46-.26.68-.4,8.86-5.75,10.36-10.79,3.81-19.77,4.99,2.91,8.11,6.42,9,11.58.63,3.66-1.08,6.47-3.79,8.74-6.24,5.24-13.73,8.12-21.18,10.97-22.56,8.61-45.78,15.21-68.9,22.1-23.29,6.94-46.54,13.97-69.81,20.96-1.26.38-2.52.75-3.78,1.14-3.49,1.1-4.2,2.49-2.86,5.89,4.24,10.77,8.26,21.63,12.08,32.57,6.33,18.14,11.69,36.58,17.25,54.96.1.33.11.69.16,1.04Z"/>
    <path class="cls-9" d="m352.06,757.63c3.68.37,7.22,1.15,10.96.7,7.11-.85,8.8-1.93,9.14-10.69.33-8.53-1.1-16.96-2.72-25.31-4.46-23-11.35-45.4-16.89-68.13-.85-3.49-1.67-6.99-2.47-10.49-1.05-4.54.62-7.76,4.92-9.42,11.47-4.42,22.94-8.81,34.41-13.21,8.44-3.24,16.9-6.44,25.32-9.71,1.38-.54,2.72-1.26,3.92-2.12,4.62-3.31,5.4-7.5,2.4-12.35-.51-.82-1.08-1.6-1.65-2.44,3.85,1.1,8.15,6.68,8.35,10.75.21,4.22-2.24,7.41-7.4,9.42-7.85,3.06-15.73,6.05-23.6,9.06-12.05,4.61-24.1,9.22-36.15,13.84-4.95,1.9-6.53,4.99-5.35,10.16,5.05,22.14,11.58,43.9,16.7,66.02,2.81,12.13,5.35,24.33,5.17,36.89-.01.79-.01,1.58-.04,2.37-.2,5.64-1.7,7.62-7.21,8.49-5.81.92-11.57.86-16.75-2.59-.29-.19-.58-.4-.83-.64-.11-.1-.12-.31-.22-.61Z"/>
    <path class="cls-9" d="m639.24,595.26c1.72,3.31,3.43,6.62,5.15,9.93-1.74,2.56-1,5.58-1.38,8.36-1.85,13.53-4.98,26.54-13.16,37.86-6.02,8.33-13.65,14.3-23.78,16.8-6.84,1.69-13.09.61-19.42-3.97,1.66.28,2.58.44,3.5.6,10.6.54,20-2.46,27.77-9.79,6.29-5.94,10.79-13.16,13.88-21.22,3.84-10.02,5.38-20.51,6.24-31.14.2-2.48-.04-5.09,1.19-7.42Z"/>
    <path class="cls-17" d="m659.86,387.47c4.57,1.98,6.28,5.39,6.71,9.51.64,6.19,1.3,12.38,1.56,18.59.44,10.33,1.15,20.68.09,31.02-.6,5.84-1.47,11.63-2.88,17.34-.66,2.69-2.66,4.31-4.31,6.18-4.48,5.07-9.62,9.45-15.03,13.54-1.8-3.04-1.41-5.29,1.15-7.46,4.29-3.64,8.25-7.61,11.95-11.86,1.91-2.2,2.18-4.95,2.73-7.57,3.04-14.3,2.52-28.76,1.82-43.23-.33-6.74-.86-13.46-1.66-20.17-.23-1.97-.83-3.75-2.14-5.91Z"/>
    <path class="cls-9" d="m800.63,557.95c12.89,5.27,23.33-8.05,24.91-18.83,2.2-15.03-.56-29.27-5.31-43.36-1.22-3.62-2.51-7.22-3.86-11.09,2.54.24,4.02,1.48,4.78,3.45,4.38,11.38,8.27,22.89,9.63,35.12.84,7.58.59,15.06-1.15,22.46-1.35,5.76-4.46,10.43-9.4,13.82-6.54,4.48-13.6,3.92-19.61-1.56Z"/>
    <path class="cls-9" d="m597.62,646.84c-.59-.02-1.17-.03-1.76-.05-6.99-7.15-9.61-16.35-11.96-25.65-.6-2.36-1.83-5.18-1.06-7.1.78-1.96,4.04-2.36,6.23-3.42,6.78-3.29,13.06-7.23,17.74-13.29,3.93-5.09,5.03-10.66,2.88-16.83-2.11-6.07-5.56-11.3-9.77-16.13,1.99.83,3.54,2.26,4.97,3.79,3.93,4.2,7.09,8.9,9.2,14.29,2.95,7.49,1.47,14.04-3.84,19.94-5.66,6.3-12.88,10.24-20.51,13.48-2.08.88-2.46,1.93-2.02,3.98,2.02,9.47,4.65,18.7,9.89,26.98Z"/>
    <path class="cls-9" d="m482.58,626.97c1.44,1.07,3.19,1.42,4.8,2.09.93,1.46-.08,2.9-.09,4.35-.09,12.13.89,24.19,2,36.25.7,7.59,1.48,15.18,2.16,22.77.21,2.34-1.15,4.04-2.84,5.36-3.77,2.95-8.15,4.42-12.88,4.85-.76.07-1.57-.16-2.32-.35-1.23-.31-2.56-.77-2.41-2.31.14-1.43,1.55-.69,2.37-.96,1.75-.57,3.58-.93,5.26-1.65,7.26-3.12,8.5-5.69,7.42-13.45-.84-6.07-1.37-12.2-1.82-18.31-.96-12.86-2.15-25.72-1.65-38.64Z"/>
    <path class="cls-4" d="m636.55,712.13c1.95,4.76,3.87,9.53,5.87,14.27.54,1.27.86,2.09-.89,2.8-1.71.69-2.07-.06-2.59-1.35-2.72-6.75-5.52-13.46-8.23-20.21-.29-.72-1.5-1.66-.11-2.4,1.17-.62,2.32-1.43,3.8-.16,4.89,4.15,9.9,8.15,14.87,12.2.73.59,1.49,1.14,2.51,1.92.76-7.02,1.49-13.7,2.21-20.37.09-.78.18-1.57.26-2.35.17-1.64,1.66-1.7,2.73-2.06,1.3-.44,1.28.95,1.56,1.63,2.84,6.79,5.59,13.62,8.44,20.4.58,1.37.61,2.04-.99,2.71-1.73.72-2.05-.14-2.54-1.37-1.92-4.76-3.9-9.5-6.28-14.17-.68,6.06-1.36,12.12-2.03,18.18-.1.95-.07,1.8-1.27,2.3-1.25.52-1.94.04-2.8-.66-4.71-3.87-9.46-7.7-14.19-11.55-.12.08-.23.16-.35.25Z"/>
    <path class="cls-17" d="m485.11,571.96c16.92,3.28,32.03.03,44.47-12.48,4.12-4.14,6.92-9.07,6.77-15.19-.1-3.9-1.77-7.25-4.01-10.43,6.31,2.46,10.36,11.2,8.43,18.17-2.28,8.24-8.1,13.57-15.09,17.8-10.25,6.21-21.35,8.06-33.11,5.87-2.84-.53-5.42-1.76-7.47-3.74Z"/>
    <path class="cls-7" d="m282.69,513c.68,1.7.38,3.48.44,5.24-13.71,4.31-27.41,8.66-41.15,12.9-6.78,2.09-13.53,4.43-20.69,4.76-5.02.24-9.83-.54-13.71-4.22,8.45,2.32,16.41-.11,24.27-2.5,16.69-5.08,33.29-10.44,49.93-15.69.32-.1.61-.32.91-.49Z"/>
    <path class="cls-17" d="m807.52,535.68c-.58.59-1.17,1.11-2.06.55-.36-1.93-2.12-2.81-3.2-4.18-8.88-11.18-16.11-23.41-23.08-35.8-12.44-22.11-23.6-44.88-34.29-67.87-.61-1.31-1.14-2.66-1.82-4.28,3.13.77,4.56,2.8,5.63,5.15,9,19.91,18.7,39.49,29.01,58.75,8.2,15.32,16.76,30.44,27.17,44.42.84,1.12,1.77,2.17,2.66,3.26Z"/>
    <path class="cls-9" d="m533.84,438.1c1.51,3.51,3.01,7.01,4.52,10.52-.81,2.16-.72,4.47-.8,6.7-.42,12.44-1.58,24.81-2.74,37.19-.76,8.07-8.04,13.92-16.17,13.01-.89-.1-2.13,0-2.19-1.34-.06-1.24.77-1.86,1.97-2.02.35-.04.68-.16,1.02-.25,6.79-1.73,10.52-6,11.08-12.96,1.08-13.53,2.48-27.04,2.78-40.62.07-3.41.35-6.82.54-10.23Z"/>
    <path class="cls-17" d="m723.17,555.19c1.87,2.61,3.75,5.23,5.62,7.84-.85,2.04-.78,4.22-.9,6.37-.53,9.65-2.12,19.08-5.79,28.09-3.26,8-9.73,12.06-18.38,11.47-2.82-.19-5.18-1.53-7.39-3.12-.76-.54.07-.54.38-.68.82-.56,1.7-.2,2.56-.2,7.56-.05,13.92-3.15,16.92-10.23,3.15-7.44,4.69-15.23,5.67-23.2.55-4.46.49-8.93.52-13.4,0-1.03-.15-2.14.79-2.94Z"/>
    <path class="cls-17" d="m582.87,429.2c1.33,3.71,2.67,7.41,4,11.12-.49,4.6-.99,9.19-1.45,13.79-1.13,11.05-1.32,22.2-3.14,33.18-.17,1.02-.48,2.06-.94,2.98-1.83,3.63-4.33,4.45-8,2.66-1.17-.57-2.24-1.33-3.86-2.32,1.83-.02,3.14.6,4.35-.13,1.14-.69,2.17-1.47,2.81-2.69.66-1.25,1.22-2.54,1.37-3.95.72-6.96,1.53-13.92,2.06-20.9.73-9.6,1.53-19.19,2.59-28.76.18-1.65.15-3.33.21-4.99Z"/>
    <path class="cls-8" d="m749.97,578.91c1.32,0,2.55.35,3.71.95,17.71,5.54,31.85-5.07,33.09-22.9.15-2.21-.72-4.56.75-6.62,1.74,1.19,3.47,2.38,5.21,3.58-.94,1.46-.39,3.08-.37,4.6.09,7.22-2.18,13.5-6.77,19.12-3.57,4.37-8.21,6.47-13.53,7.33-8.24,1.33-15.57-.94-22.08-6.05Z"/>
    <path class="cls-7" d="m560.21,634.78c1.52,3.14,3.05,6.27,4.57,9.41-1.36,2.32-1.28,5.02-2.02,7.51-1.95,6.59-4.38,12.86-8.94,18.21-4.32,5.06-9.74,5.77-15.74,4.63-2.58-.49-5.04-1.45-7.22-3.01-.79-.57-.76-.89.24-1,2.28-.04,4.52.44,6.81.44,4.54,0,8.09-1.86,10.92-5.34,4.77-5.86,7.26-12.74,8.93-19.97.65-2.82,1.11-5.67,1.57-8.53.13-.84.02-1.79.88-2.37Z"/>
    <path class="cls-8" d="m674.07,582.56c1.72,3.35,3.44,6.71,5.16,10.06.22,8.17,1.88,16.1,4.23,23.87,1.44,4.75.63,8.57-3.12,11.84-3.54,3.09-7.54,4.75-12.28,4.3-2.03-.19-3.85-.86-5.23-3.09,4.43-.05,8.21-1.08,11.54-3.59,4.68-3.53,5.78-7.26,4.18-12.88-2.84-9.96-4.87-20.08-4.47-30.53Z"/>
    <path class="cls-17" d="m540.52,647.91c-.26,1.74-.91,3.24-2.55,4.13-2.63-6.79-4.36-13.8-5.46-21-1.32-8.57-2.37-17.16-2.49-25.83-.04-2.82-.36-5.53-1.82-8.13,4.46,1.74,6.45,4.73,6.59,9.44.41,13.67,1.79,27.22,5.27,40.49.08.32.3.6.46.9Z"/>
    <path class="cls-14" d="m585.72,739.53c-2.33.23-4.24.56-6.16.56-2.51,0-4.73-.8-5.56-3.52-.8-2.64.35-4.64,2.41-6.16,2.74-2.01,5.89-2.69,9.22-2.22,1.91.27,3.46,1.34,4.36,3.07.44.84,1.81,1.96.27,2.76-1.08.56-2.69,1.66-3.51-.77-.54-1.6-2.06-2.1-3.69-1.81-2.07.36-4.29.66-5.34,2.83-.62,1.29.31,2.08,1.49,2.15,1.48.09,2.97-.09,4.45-.23,2.01-.18,4.01-.5,5.99.21,3.17,1.14,4.35,4.76,2.46,7.54-2.34,3.43-9.65,5.36-13.4,3.54-1.57-.76-2.68-1.98-3.34-3.57-.36-.86-1.44-2.02.3-2.52,1.03-.3,2.23-1.36,3.13.79,1.38,3.3,8.03,3.36,9.99.22.81-1.3.51-2.4-1.13-2.75-.76-.17-1.57-.12-1.95-.14Z"/>
    <path class="cls-17" d="m629.26,453.78c-1.53-.8-3.01-1.67-4.19-2.96.1-1.63-1.42-2.21-2.23-3.18-7.73-9.22-12.63-19.96-16.89-31.06-3.36-8.76-6.05-17.74-8.54-26.78-.25-.9-1.12-1.97.73-2.41,1.49-.36,2.19-.08,2.61,1.48,3.36,12.34,6.93,24.62,11.92,36.44,4.14,9.83,8.89,19.27,16.31,27.13.38.4.74.78.27,1.34Z"/>
    <path class="cls-7" d="m449.78,630.49c1.02,3.82,1.76,7.69,2.16,11.63-1.04,2.48-1.98,5.01-3.14,7.44-2.8,5.88-7.67,8.61-14.05,8.94-3.08.16-6.13-.1-9.14-.71-.58-.12-2.04.26-1.67-1.26.24-1,.71-1.63,2.05-1.4,2.71.48,5.42.03,8.06-.62,5.86-1.43,9.08-5.6,11.06-10.96,1.6-4.34,3.12-8.7,4.68-13.05Z"/>
    <path class="cls-14" d="m538.38,749.77c-.46-2.81-.94-5.92-1.47-9.03-.23-1.32-.06-2.06,1.58-2.24,1.49-.16,1.95.15,2.16,1.65.66,4.86,1.5,9.69,2.29,14.53.34,2.07-1.2,3.64-2.98,2.64-1.03-.58-1.38-.28-2.06.11-2.19,1.24-4.57,1.79-7.07,1.67-4.1-.2-6.46-2.36-7.13-6.37-.53-3.19-.97-6.41-1.59-9.58-.33-1.68.44-2.11,1.87-2.35,1.53-.26,1.71.55,1.87,1.74.41,2.95.92,5.88,1.43,8.81.63,3.66,1.88,4.7,5.17,4.35,4.02-.42,6.02-2.31,5.94-5.93Z"/>
    <path class="cls-17" d="m311.24,649.05c.47,1.74,1.14,3.45.9,5.31-9.19,3.23-18.37,6.49-27.57,9.67-2.93,1.01-4.71.26-7.12-2.75,4.75-1.66,9.44-3.31,14.13-4.94,5.72-1.99,11.45-3.95,17.16-5.96.89-.31,1.93-.4,2.5-1.33Z"/>
    <path class="cls-17" d="m612.68,473.29c12.67,3.87,20.76-2.11,21.48-15.94,3.98,1.27,5.19,3.37,4.03,7.23-.5,1.67-1.09,3.34-1.87,4.9-3.78,7.59-10.29,10.01-18.21,6.92-1.98-.77-3.72-1.91-5.43-3.11Z"/>
    <path class="cls-17" d="m703.51,582.13c-.47,1.15-.87,2.34-2.01,3.04-5.71-9.53-10.11-19.59-12.41-30.5-.13-.6-.34-1.23-.25-1.81.13-.81-1-1.81.1-2.34.92-.44,1.86.26,2.63.85,1.43,1.1,1.77,2.69,2.04,4.38,1.46,8.98,4.63,17.39,8.74,25.47.25.5.54.9,1.16.9Z"/>
    <path class="cls-17" d="m566.84,439.24c.38,2.65-.45,5.23-.49,7.85-4.31-6.85-7.13-14.44-10.65-21.68-2.87-5.92-5.69-11.85-9.04-17.52-.39-.66-1.42-1.49-.22-2.21,1.12-.67,1.52.51,1.97,1.16,4.48,6.43,7.87,13.46,11.19,20.53,2.12,4.52,4.22,9.05,6.35,13.61.9-.37.28-1.35.88-1.74Z"/>
    <path class="cls-14" d="m716.34,693.4c-.25,1.16-1.38,1.23-2.14,1.73-.97.64-1.2-.31-1.51-.86-1.91-3.35-3.84-6.7-5.65-10.11-.72-1.35-1.43-1.92-2.77-.84-1.14.92-1.83.74-2.6-.62-.79-1.39-.18-1.9.91-2.28,2.47-.87,1-2.16.46-3.43-.4-.93-1.94-1.79.02-2.95,1.66-.98,2.45-.67,3.13.98.72,1.75,1.59,3.19,3.71,1.36,1.26-1.09,1.56.23,2.07.97.62.9.61,1.63-.54,2.01-2.37.78-1.84,2.05-.85,3.69,1.77,2.92,3.36,5.96,5.02,8.95.25.46.48.93.73,1.42Z"/>
    <path class="cls-3" d="m507.89,744.22c.03-.57-.28-1.3.61-1.49.93-.2,2.5-.77,2.72-.16.76,2.07,1.57.48,2.2.17,1.35-.66,2.75-1.11,4.2-1.44,1.14-.26,1.98-.23,2.23,1.3.24,1.45-.36,1.68-1.59,1.99-4.18,1.05-5.79,3.22-5.61,7.6.1,2.44.46,4.87.79,7.3.15,1.11.18,1.91-1.28,1.87-1.03-.03-2.24.7-2.44-1.24-.54-5.31-1.22-10.6-1.84-15.89Z"/>
    <path class="cls-14" d="m698.87,702.82c-.38,1.08-1.48,1.14-2.24,1.64-.99.66-1.18-.22-1.48-.79-2.43-4.65-4.87-9.3-7.24-13.97-.27-.53-1.17-1.26-.31-1.81.86-.55,1.85-1.84,2.89-1,.96.77,1.1.21,1.48-.33.98-1.39,2.25-2.47,3.72-3.27.65-.36,1.41-1.74,2.3-.18.61,1.08,1.23,1.86-.37,2.92-3.74,2.5-4.36,5.09-2.51,9.28.92,2.08,2.04,4.06,3.07,6.09.24.47.46.94.7,1.42Z"/>
    <path class="cls-14" d="m803.24,633.05c-.73.02-.98-.51-1.31-.88-5.15-5.77-10.25-11.57-15.44-17.3-1.08-1.19-.4-1.72.41-2.53.96-.95,1.57-.96,2.51.11,5.03,5.75,10.14,11.43,15.21,17.16.37.41,1.17.84.66,1.51-.58.75-1.38,1.33-2.04,1.93Z"/>
    <path class="cls-17" d="m647.77,423.94c.68,2.4.62,4.89.82,7.35-5.74-7.87-10.56-16.32-15.39-24.77-2.39-4.18-4.88-8.29-7.45-12.65,2.27.47,3.42,2.1,4.55,3.69,4.9,6.87,8.51,14.52,12.93,21.67,1.33,2.15,2.66,4.3,4.01,6.49.73-.6.2-1.29.52-1.79Z"/>
    <path class="cls-17" d="m660.75,564.11c-.65,5.06-.43,10.14-.53,15.22-2.47-9.7-4.94-19.39-7.46-29.32,2.65.59,4.27,2.14,5.05,4.64.99,3.15,1.96,6.31,2.94,9.47Z"/>
    <path class="cls-3" d="m798.3,611.05c.32.59.5,1.13.85,1.51,3.67,4.03,7.32,8.07,11.08,12.01,1.09,1.14.59,1.66-.3,2.48-.91.84-1.51,1.21-2.53.06-3.68-4.13-7.48-8.16-11.21-12.25-.36-.4-1.15-.79-.46-1.49.66-.67,1.4-1.27,2.57-2.31Z"/>
    <path class="cls-17" d="m505.33,628.52c.47,1.88.94,3.75,1.41,5.63-2.95.03-5.91.18-8.85.06-2.82-.12-5.41-.97-7.7-3.75,4.89,1.12,9.1.4,13.32-.44.93-.18,1.72-.38,1.82-1.5Z"/>
    <path class="cls-3" d="m732.97,671.85c-1.23-.04-1.66-1.7-2.08-2.99-.43-1.32,3.33-4.17,5.43-4.25,2-.08,2.34,1.7,2.78,2.97.46,1.32-3.34,4.16-6.13,4.27Z"/>
    <path class="cls-3" d="m612.69,723.27c2.43-.2,2.24,1.91,2.57,3.23.34,1.37-3.15,3.14-5.71,3.19-2.41.05-2.29-1.89-2.54-3.27-.27-1.48,3.02-3.21,5.68-3.15Z"/>
    <path class="cls-2" d="m569.6,726.99c-.14.87-.28,2.17-.58,3.44-.3,1.26-1.31,1.53-2.44,1.38-1.17-.15-1.28-1.01-1.14-1.95.18-1.2.33-2.41.62-3.59.3-1.24,1.28-1.55,2.44-1.41,1.03.12,1.2.84,1.11,2.13Z"/>
    <path class="cls-6" d="m469.4,610.06c-.37,1.85-1.2,3.52-2.04,5.18-.75-3.61-2.1-6.99-4.05-10.15,2.2.35,2.56.65,6.09,4.97Z"/>
    <path class="cls-5" d="m796.34,609.95c-.29,1.29-.74,2.39-2.06,2.09-1.64-.37-2.72-1.63-2.97-3.26-.17-1.14.83-1.81,1.86-1.72,1.77.17,2.47,1.65,3.18,2.88Z"/>
    <path class="cls-11" d="m495.78,612.5c-1.32.03-2.58-.17-3.72-.9,1.79-1.98,2.77-.63,3.72.9Z"/>
    <g>
      <path class="cls-1" d="m812.19,483.15c-.58-1.51-1.65-2.7-3.2-3.33-2.32-.94-4.51-.67-6.4,1-2.17,1.92-2.41,4.39-1.65,7.01,1.17,4.04,2.51,8.03,3.62,12.09,2.43,8.9,4.2,17.94,4.87,27.15.22,3.01.64,6.17-1.91,8.62-.73,0-1.29.66-2.06.55-3.88-1.04-5.93-4.25-8.18-7.11-8.4-10.65-15.29-22.29-21.92-34.07-12.95-23.02-24.66-46.67-35.59-70.7-1.18-2.6-2.82-4.64-5.63-5.52-5.01-1.57-11.39.39-14.8,4.54-3.69,4.49-4.02,8.87-.96,14.39,1.7,3.07,3.65,6,5.27,9.11,7.69,14.68,15.31,29.4,22.95,44.11.15.28.36.61-.14,1.03-4.23-.97-8.5-1.06-12.76.69-16.03,6.56-20.84,20.64-19.85,34.56.29,4.05,1.25,7.99,2.18,12.1-5.8-1.92-9.33.94-8.83,6.63,1.08,12.28.3,24.38-3.68,36.15-1.25.63-1.58,1.87-2.01,3.04-2.22,1.62-3.07-.5-3.85-1.69-6.51-9.94-10.92-20.76-12.99-32.46-.8-4.5-2.48-6.12-7.01-5.93-1.79.07-3.46.6-5.03,1.4-7.18,3.7-11.43,9.38-11.87,17.62-1.15,1.29-1.1,2.91-1.22,4.47-.28,3.61.43,7.16.69,10.74.22,3.11.44,6.23.68,9.53-1.08-.69-1.23-1.69-1.58-2.52-1.76-4.21-3.12-8.56-4.27-12.98-1.97-7.55-3.81-15.13-5.85-22.66-1.31-4.83-4.35-6.67-9.31-6.01-7.68,1.02-16.1,9.77-13.52,19.52,1.1,4.15,2.45,8.21,3.97,12.23-5.45.98-6.67,2.66-7.05,8.1-1.07,15.21-3.86,30.09-9.34,44.38-2.06,5.36-4.79,10.36-8.92,14.46-2.03,2.01-4.31,3.62-7.39,3.46-.58-.36-1.16-.53-1.76-.05-.72.13-1.31-.08-1.97-.43-3.59-1.93-5.67-5.18-7.53-8.59-3.75-6.84-5.79-14.27-7.34-21.85-.81-3.98-.81-4.01,2.92-5.67,7.44-3.32,14.43-7.3,19.82-13.59,4.65-5.42,6.24-11.51,3.66-18.36-4.05-10.75-11.09-18.81-21.64-23.62-3.16-1.44-6.5-2.12-9.99-1.89-9.21.59-14.36,6.16-17.34,14.28-3.69,10.07-4.55,20.51-3.92,31.13.08,1.38,0,2.13-1.6,2.59-2.92.85-4.5,3.08-4.52,6.11-.04,8.19-1.09,16.3-2.19,24.38-.77,5.63-1.43,11.31-3.69,16.62-1.21,1.16-1.62,2.8-2.54,4.13-1.78.5-2.83-.55-3.72-1.82-1.02-1.45-1.62-3.11-2.14-4.78-4.34-13.85-5.77-28.14-6.28-42.55-.31-8.7-7.05-14.13-15.6-12.23-7.31,1.62-10.36,7.18-8.56,15.64,1.31,6.17,1.06,6.46-5.37,6.27-.17,0-.35-.05-.52-.08-1.16-.65-2.37-1.05-3.72-.9-1.56-.47-3.2-1.24-3.86-2.57-1.8-3.66-5.04-3.44-8.22-3.63-.79-.05-1.6.03-2.36-.13-4.22-.91-7.26.14-8.22,4.79-1.4,1.44-1.81,3.27-2.04,5.18-.61,1.56-1.22,3.12-2.04,5.2-.36-1.25-.55-1.92-.73-2.58-1.05-3.89-2.02-7.8-3.74-11.47-1.74-3.74-4.29-6.53-8.51-7.56-8.32-2.03-15.44,1.41-18.89,9.36-5.79,13.33-11.51,26.68-17.26,40.02q-1.78,4.14,2.63,4.85c12.45,2,19.1-2.01,23.1-13.93,1.25-3.73,2.47-7.48,3.78-11.19.22-.63.13-1.86,1.25-1.63,1.03.21,2.34.36,2.52,1.87.09.78.21,1.55.32,2.33-.1,4.03.56,7.91,2.16,11.63.14.51.33,1,.43,1.52,3.03,16.55,6.06,33.1,9.08,49.65.58,3.17,1.51,4.19,4.67,4.13,5.35-.1,10.14-1.87,14.17-5.45,1.43-1.27,2.29-2.87,2.08-4.89-.39-3.66-.82-7.32-1.14-10.99-1.33-15.12-2.91-30.22-2.91-45.43,0-1.66.09-3.33.28-4.98.07-.64-.03-1.58.73-1.84.91-.31,1.02.74,1.47,1.2.61.62,1.19,1.28,1.78,1.92,1.11,1.82,2.75,2.43,4.8,2.09,5.4.59,10.65-.23,15.78-1.84,1.49-.47,2.15-.31,2.17,1.31-.03,2-.09,4.01,1.41,5.63,1.09,4.42,1.96,8.92,3.33,13.25,3.48,11.05,8.55,20.73,21.67,22.63,1.1,1.12,2.45.72,3.73.57,6.2-.73,9.98-4.87,13.05-9.71,3.32-5.24,5.28-11.07,6.58-17.13,1.01-4.71,1.74-9.47,2.41-14.57.6,2.15,1.37,3.82,2.08,5.52.56.99.84,2.12,1.39,3.09,1.23,2.15,1.63,4.81,3.82,6.39,1.63,2.89,3.46,5.65,5.63,8.17,5.9,6.85,12.69,12,22.38,11.49.77.69,1.65.44,2.51.28,6.6-1.27,12.6-3.92,17.69-8.29,8.93-7.66,14.47-17.54,17.9-28.65,2.91-9.45,3.95-19.24,4.76-29.04.25-2.97.24-5.99-.08-8.85.87,1.95,1.83,4.01,3.03,5.95,1.21,1.79,2,3.81,3.06,5.68.83,1.47,1.11,3.3,2.73,4.26,2.63,5.25,5.36,10.45,7.56,15.91,2.31,5.7,5.25,7.3,11.34,6.25,8.84-1.53,13.16-8.49,10.79-17.04-2.65-9.59-4.41-19.33-4.31-29.33.02-1.51-.02-3.08,1.33-4.41,1.43,1.92,2.32,3.89,2.97,5.99.95,3.75,2.27,7.31,5.16,10.06,4.12,5.48,8.82,10.16,15.92,11.51.26.28.61.3.96.31,6.99.05,13.68-2.93,16.93-10.21,1.97-4.42,3.45-9,4.41-13.74,2.04-10.08,2.92-20.24,2.11-30.56.82,1.83,1.86,3.44,2.82,5.11.65.92,1.24,1.88,1.92,2.77,1.39,1.83,2.16,4.19,4.48,5.22,5.77,7.01,12.79,12.35,21.18,15.87,1.24.58,2.47,1.18,3.81,1.51,7.73,1.36,14.97.18,20.92-5.1,5.88-5.22,9-11.98,9.25-19.94.07-2.22-.17-4.46.16-6.73,1.35.36,1.97,1.28,2.83,1.86,2,1.02,3.31,3.19,5.78,3.41.85.46,1.71.89,2.54,1.38,5.86,3.44,11.35,2.49,16.58-1.38,4.09-3.02,6.86-6.99,8.34-11.85,1.47-4.83,2-9.8,2.04-14.82.14-15.48-4.56-29.88-10.04-44.1Zm-236.67,88.34c.05-.34.18-.68.27-1.02.35-1.25.48-2.83,1.96-3.17,1.52-.34,2.23,1.09,3.03,2.11h0c1.88,2.17,3.12,4.68,4.03,7.38h0s0,0,0,0c1.05,2.49,1.75,5.09,2.05,7.76.27,2.43-.34,4.65-2.04,6.49-1.4,1.56-3.14,2.56-5.13,3.15-1.08.78-2.3,1.19-3.79,1.51-.76-8.13-1.45-16.16-.37-24.22Zm195.4-11.58c-1.25,3.92-4.02,5.66-8.24,5.25-.74.06-1.5.23-2.07-.47h0s0,0,0,0c-4.22-1.69-7.32-4.81-10.01-8.27-8.02-10.34-13.48-21.84-15.08-34.97-.47-3.87-.28-7.72,1.22-11.37,2.29-5.6,7.73-7.32,12.26-3.99,1.68.69,3.08,1.72,4.06,3.27h0c.91.79,1.96,1.47,2.71,2.39,10.24,12.69,16.03,27.02,15.91,43.5-.01,1.6-.28,3.15-.76,4.66Z"/>
      <path class="cls-17" d="m759.44,562.52c-7.36-9.61-12.78-20.12-15.04-32.11-.75-3.98-1.05-7.96-.28-12.01.64-3.36,2.11-6.14,4.89-8.11,1.16-.82,2.41-1.89,4.04-.94h0c-.98-1.56-2.38-2.58-4.06-3.27-4.87.35-8.1,3.61-9.03,8.73-.98,5.41-.37,10.68,1.07,15.87,3.27,11.76,8.52,22.45,17.11,31.32.84.87,2.31,1.19,2.47,2.68h0c.57.7,1.33.53,2.07.47h0c-1.29-.62-2.37-1.49-3.24-2.63Z"/>
      <path class="cls-17" d="m746.68,536.78c-1.93-6.31-3.17-12.73-1.61-19.37,1.02-4.34,3.55-7.13,7.99-8.05-1.63-.95-2.88.11-4.04.94-2.78,1.97-4.25,4.75-4.89,8.11-.78,4.05-.47,8.03.28,12.01,2.26,11.99,7.68,22.51,15.04,32.11.87,1.14,1.95,2.01,3.24,2.63h0c-7.47-8.25-12.75-17.76-16-28.37Z"/>
      <path class="cls-17" d="m580.89,571.73c-1.37,6.29-1.24,12.62-.55,18.97.13,1.22.16,2.45-.66,3.5,1.99-.59,3.73-1.59,5.13-3.15-1.78-3.1-.76-6.46-.75-9.69,0-1.47-.12-3.15.75-4.56h0c-.9-2.7-2.15-5.21-4.03-7.38h0s0,0,0,0c.33.76.28,1.55.11,2.31Z"/>
      <path class="cls-17" d="m579.68,594.2c.82-1.05.79-2.28.66-3.5-.69-6.35-.82-12.68.55-18.97.17-.76.22-1.56-.11-2.31,0,0,0,0,0,0-.4,1.61-.91,3.2-1.17,4.84-1.07,6.65-.31,13.3.07,19.95Z"/>
    </g>
    <path class="cls-10" d="m901.93,417.02c0,8.54-7.02,15.59-15.55,15.6-8.56,0-15.56-6.99-15.57-15.56,0-8.62,6.9-15.52,15.53-15.53,8.63,0,15.59,6.91,15.59,15.49Z"/>
    <path class="cls-4" d="m568.16,750.91c-1.04-5.25-2.19-10.47-3.3-15.7-.39-1.85-2.67-2.74-3.47-1.19-.99,1.9-1.98.81-2.95.72-4.19-.37-7.91.61-10.6,3.98-2.64,3.3-2.42,6.99-.84,10.7.85,2,2.46,3.34,4.4,4.7-2.63.08-2.5,1.22-1.57,2.93,1.24,2.25,2.99,3.61,5.6,3.81,3.15.25,6.14-.31,8.91-1.81,3.2-1.73,4.55-4.54,3.84-8.15Zm-18.55-6.45c0-3.63,2.94-6.36,6.89-6.39,3.69-.03,6.4,2.84,6.43,6.8.03,3.7-2.96,6.36-7.16,6.38-3.49.01-6.15-2.92-6.16-6.79Zm11.45,12.36c-4.43,1.62-6.72.99-8.13-2.45,4.22.59,8.02-.2,11.21-3.08.87,2.84-.06,4.43-3.08,5.54Z"/>
    <path class="cls-4" d="m494.65,736.92c-4.39-.6-8.75.36-13.13.28-1.88-.04-2.31.78-2.18,2.55.45,6.3.79,12.6,1.09,18.91.23,4.89.18,4.89,5.65,4.7,2.62-.23,5.98-.17,9.23-1.02,1.1-.29,2.19-.67,3.2-1.17,5.29-2.58,7.72-7.8,6.63-14.12-1.01-5.85-4.6-9.32-10.49-10.13Zm2.12,21.32c-3.68,1.84-7.71,1.35-11.6,1.76-1.27.13-.98-.97-1.02-1.68-.22-3.49-.42-6.99-.62-10.49.03,0,.05,0,.08,0-.14-1.83-.21-3.68-.45-5.5-.18-1.4.38-1.88,1.7-1.91,2.8-.05,5.61-.31,8.4-.22,4.49.15,7.25,2.66,8.15,7.11,1.01,5.02-.66,8.94-4.63,10.93Z"/>
    <path class="cls-14" d="m765.45,634.19c-3.97,0-6.67,1.22-9.14,2.97-2.72,1.93-5.33,4.02-8.1,5.88-1.48.99-1.69,1.68-.54,3.18,3.55,4.58,6.89,9.32,10.37,13.95,1.3,1.73,2.3,4.69,4.07,4.81,1.7.12,3.59-2.16,5.36-3.43,3.07-2.21,6.16-4.41,8.11-7.78,2.34-4.05,2.55-8.19.13-12.24-2.5-4.17-5.85-7.23-10.25-7.34Zm6.57,18.83c-2.13,3-5.33,4.78-8.15,7-.79.62-1.19.22-1.66-.42-3.32-4.52-6.67-9.03-9.98-13.55-.32-.44-1.03-.98-.23-1.53,3.52-2.39,6.48-5.71,10.9-6.63.43-.09.87-.1,1.36-.15,4.18.12,6.58,2.82,8.44,6.15,1.76,3.15,1.36,6.25-.7,9.14Z"/>
    <path class="cls-4" d="m796.29,630.13c-1.83.96-2.87,1.96-2.69,4.43.24,3.33-2.25,5.36-5.04,6.76-2.17,1.09-4.23.82-6.18-1.08,4.02-3.36,7.95-6.72,11.98-9.94,1.32-1.05,1.25-1.75.21-2.92-2.93-3.3-6.87-4.2-10.97-2.33-4.98,2.27-8.07,6.9-7.42,11.31.63,4.29,3.07,7.34,7.15,8.63,4.51,1.43,8-.86,11.02-3.95,3.09-3.15,3.75-6.79,1.94-10.92Zm-13.49-.75c2.71-2.04,5.13-2.13,7.7-.16-3.37,2.78-6.71,5.54-10.11,8.35-1.35-3.39-.53-5.98,2.41-8.2Z"/>
    <path class="cls-14" d="m683.38,691.7c-.27-.55-.33-1.67-1.24-1.41-.95.27-2.68.64-2.54,1.46.37,2.15-.99,1.45-1.89,1.49-6.04.26-11.05,4.85-11.09,10.72.05.32.1,1.2.34,2.03,1.08,3.67,3.17,6.48,7.09,7.36,4.54,1.02,8.2-.82,11.38-3.91.6-.58.77-2.09,2.26-.71.48.44,1.99-.45,2.73-1.19.62-.62-.16-1.26-.43-1.84-2.18-4.68-4.37-9.35-6.61-14Zm-6.63,18.52c-3.51.04-6.4-3.05-6.44-6.89-.04-3.61,3.56-6.82,7.6-6.77,3.22.04,6.1,3.13,6.19,6.64.1,3.77-3.25,6.97-7.34,7.02Z"/>
    <path class="cls-4" d="m886.34,403.7c7.42,0,13.43,5.95,13.45,13.33.02,7.36-5.99,13.35-13.41,13.37-7.4.02-13.41-5.95-13.43-13.34-.02-7.38,5.97-13.35,13.4-13.36Z"/>
    <path class="cls-4" d="m887.17,422.33c-1.09.15-1.04-.61-1.09-1.33-.1-1.55-.06-3.12-.7-4.95-.88,1.91-1.62,3.57-2.41,5.21-.29.6-.33,1.47-1.19,1.58-1.04.14-1.21-.85-1.63-1.46-1.02-1.51-1.99-3.05-3.37-4.45.12,1.67.26,3.34.34,5.01.03.55.25,1.38-.72,1.35-.89-.02-.75-.82-.79-1.39-.19-2.45-.38-4.9-.52-7.35-.03-.55-.34-1.29.51-1.56.76-.24,1.1.34,1.44.86,1.42,2.2,2.83,4.41,4.49,7,1.22-2.64,2.29-4.95,3.36-7.26.29-.62.45-1.42,1.4-1.3,1.05.13.8,1,.83,1.64.07,1.66.09,3.33.13,4.99.25,1.14.38,2.28-.06,3.41Z"/>
    <path class="cls-4" d="m887.65,415.41c-.89-3.02.72-3.71,3.29-3.62,1.22.05,2.46-.12,3.66,0,1.48.15,2.86,1.29,2.39,2.53-.82,2.15.28,3.94.31,5.88,0,.54.39,1.35-.51,1.51-.95.17-.8-.71-.92-1.24-.57-2.38-4-3.73-5.99-2.34-.78.54-.14,1.28-.24,1.92-.12.77.7,2.07-.54,2.18-1.53.14-.8-1.38-.93-2.15-.27-1.54-.36-3.12-.52-4.68Z"/>
    <path class="cls-4" d="m887.17,422.33c.02-1.14.04-2.27.06-3.41.48,1.15.8,2.29-.06,3.41Z"/>
    <path class="cls-12" d="m891.44,416.5c-1.18.12-2.21.29-2.22-1.52-.03-3.18,2.39-1.33,3.61-1.77,1.03-.36,2.88-.28,2.63,1.45-.32,2.17-2.47,1.63-4.01,1.84Z"/>
    <path class="cls-1" d="m465.2,621.05l5.06-15.52s3.1-2.7,12.42-.08l5.15,5.06"/>
    <path class="cls-1" d="m478.84,624.16s.96-.86,1.45-.04,3.2,3.88,4.27,4.62c1.2.83,7.15,1.08,9.27.33"/>
  </g>
  <text class="cls-16" transform="translate(875.34 421.54) scale(.88 1)"><tspan x="0" y="0">M</tspan></text>
  <text class="cls-16" transform="translate(886.74 421.54) scale(1.05 1)"><tspan x="0" y="0">R</tspan></text>
</svg>